<svg width="45" height="45" viewBox="0 0 45 45" fill="none" xmlns="http://www.w3.org/2000/svg">
<path d="M38.9375 0.957031C39.3385 0.55599 39.7943 0.300781 40.3047 0.191406C40.8333 0.0638021 41.3529 0.0638021 41.8633 0.191406C42.3919 0.31901 42.8659 0.583333 43.2852 0.984375C43.668 1.36719 43.9232 1.82292 44.0508 2.35156C44.1966 2.88021 44.1966 3.40885 44.0508 3.9375C43.9232 4.44792 43.668 4.90365 43.2852 5.30469L5.33203 43.2578C4.94922 43.6406 4.49349 43.8958 3.96484 44.0234C3.45443 44.151 2.9349 44.151 2.40625 44.0234C1.8776 43.8958 1.40365 43.6315 0.984375 43.2305C0.583333 42.8477 0.31901 42.3919 0.191406 41.8633C0.0638021 41.3346 0.0638021 40.806 0.191406 40.2773C0.33724 39.7487 0.601562 39.3021 0.984375 38.9375L38.9375 0.957031ZM43.2852 38.9102C43.668 39.3112 43.9232 39.776 44.0508 40.3047C44.1784 40.8151 44.1784 41.3346 44.0508 41.8633C43.9232 42.3919 43.668 42.8477 43.2852 43.2305C42.8841 43.6315 42.4193 43.8958 41.8906 44.0234C41.362 44.151 40.8333 44.151 40.3047 44.0234C39.776 43.8958 39.3203 43.6406 38.9375 43.2578L0.984375 5.27734C0.601562 4.91276 0.346354 4.46615 0.21875 3.9375C0.0911458 3.40885 0.0911458 2.88021 0.21875 2.35156C0.346354 1.82292 0.601562 1.36719 0.984375 0.984375C1.38542 0.583333 1.85026 0.31901 2.37891 0.191406C2.90755 0.0638021 3.4362 0.0638021 3.96484 0.191406C4.49349 0.31901 4.94922 0.574219 5.33203 0.957031L43.2852 38.9102Z" fill="#C93B30" fill-opacity="0.16" style="fill:#C93B30;fill:color(display-p3 0.7882 0.2314 0.1882);fill-opacity:0.16;"/>
</svg>
