<svg width="47" height="56" viewBox="0 0 47 56" fill="none" xmlns="http://www.w3.org/2000/svg">
<path d="M0 32.7852V12.3047C0 10.5365 0.33724 9.23307 1.01172 8.39453C1.70443 7.53776 2.79818 6.79948 4.29297 6.17969C4.85807 5.92448 5.66927 5.59635 6.72656 5.19531C7.80208 4.79427 8.98698 4.36589 10.2812 3.91016C11.5938 3.4362 12.888 2.97135 14.1641 2.51562C15.4583 2.0599 16.625 1.65885 17.6641 1.3125C18.7214 0.947917 19.5326 0.683594 20.0977 0.519531C20.6263 0.391927 21.1732 0.273438 21.7383 0.164062C22.3034 0.0546875 22.8503 0 23.3789 0C23.8893 0 24.4362 0.0546875 25.0195 0.164062C25.6029 0.255208 26.1497 0.373698 26.6602 0.519531C27.207 0.701823 28.0091 0.97526 29.0664 1.33984C30.1237 1.70443 31.2995 2.11458 32.5938 2.57031C33.888 3.02604 35.1732 3.48177 36.4492 3.9375C37.7435 4.39323 38.9193 4.82161 39.9766 5.22266C41.0521 5.60547 41.8815 5.92448 42.4648 6.17969C43.9779 6.81771 45.0625 7.55599 45.7188 8.39453C46.3932 9.23307 46.7305 10.5365 46.7305 12.3047V32.7852C46.7305 35.2826 46.3568 37.4792 45.6094 39.375C44.8802 41.2526 43.6771 43.0117 42 44.6523C40.3411 46.2747 38.1445 47.9336 35.4102 49.6289C32.6758 51.3242 29.3216 53.2292 25.3477 55.3438C25.0013 55.526 24.6458 55.6628 24.2812 55.7539C23.9349 55.8633 23.6341 55.918 23.3789 55.918C23.1237 55.918 22.8138 55.8633 22.4492 55.7539C22.1029 55.6628 21.7474 55.526 21.3828 55.3438C17.4271 53.2292 14.082 51.3151 11.3477 49.6016C8.63151 47.9062 6.4349 46.2474 4.75781 44.625C3.09896 42.9844 1.88672 41.2253 1.12109 39.3477C0.373698 37.4701 0 35.2826 0 32.7852ZM23.7617 49.4922C23.9076 49.4557 24.0625 49.401 24.2266 49.3281C24.4089 49.2552 24.6185 49.1367 24.8555 48.9727C27.8997 47.168 30.4518 45.6094 32.5117 44.2969C34.5898 42.9844 36.2487 41.7448 37.4883 40.5781C38.7461 39.3932 39.6484 38.1172 40.1953 36.75C40.7422 35.3828 41.0156 33.724 41.0156 31.7734V13.207C41.0156 12.7148 40.9427 12.3411 40.7969 12.0859C40.6693 11.8307 40.4141 11.6302 40.0312 11.4844C39.2292 11.1927 38.2995 10.8646 37.2422 10.5C36.2031 10.1172 35.1094 9.72526 33.9609 9.32422C32.8307 8.92318 31.7096 8.52214 30.5977 8.12109C29.4857 7.72005 28.4466 7.34635 27.4805 7C26.5143 6.63542 25.7031 6.32552 25.0469 6.07031C24.7552 5.96094 24.5091 5.88802 24.3086 5.85156C24.1263 5.79688 23.944 5.76953 23.7617 5.76953V49.4922Z" fill="#7D6945" style="fill:#7D6945;fill:color(display-p3 0.4902 0.4118 0.2706);fill-opacity:1;"/>
</svg>
