<svg width="13" height="15" viewBox="0 0 13 15" fill="none" xmlns="http://www.w3.org/2000/svg">
<path d="M0 8.72314V3.18604C0 2.75146 0.0854492 2.43408 0.256348 2.23389C0.432129 2.02881 0.700684 1.85059 1.06201 1.69922C1.22314 1.63086 1.4502 1.54053 1.74316 1.42822C2.03613 1.31592 2.36084 1.19629 2.71729 1.06934C3.07373 0.9375 3.42773 0.808105 3.7793 0.681152C4.13574 0.554199 4.45801 0.441895 4.74609 0.344238C5.03906 0.241699 5.26611 0.168457 5.42725 0.124512C5.54443 0.0952148 5.66895 0.0683594 5.80078 0.0439453C5.9375 0.0146484 6.06689 0 6.18896 0C6.31104 0 6.43799 0.012207 6.56982 0.0366211C6.70654 0.0610352 6.83594 0.090332 6.95801 0.124512C7.11426 0.178223 7.33643 0.256348 7.62451 0.358887C7.91748 0.461426 8.23975 0.576172 8.59131 0.703125C8.94775 0.825195 9.30176 0.949707 9.65332 1.07666C10.0098 1.20361 10.3345 1.32324 10.6274 1.43555C10.9204 1.54297 11.1475 1.63086 11.3086 1.69922C11.6748 1.85547 11.9434 2.03369 12.1143 2.23389C12.29 2.43408 12.3779 2.75146 12.3779 3.18604V8.72314C12.3779 9.39209 12.2778 9.97803 12.0776 10.481C11.8823 10.979 11.5625 11.4453 11.1182 11.8799C10.6787 12.3096 10.0952 12.7515 9.36768 13.2056C8.64502 13.6597 7.75635 14.1748 6.70166 14.751C6.60889 14.7998 6.51611 14.8364 6.42334 14.8608C6.33057 14.8901 6.25244 14.9048 6.18896 14.9048C6.12549 14.9048 6.04736 14.8901 5.95459 14.8608C5.86182 14.8364 5.76904 14.7998 5.67627 14.751C4.62158 14.1748 3.73047 13.6572 3.00293 13.1982C2.28027 12.7441 1.69678 12.3022 1.25244 11.8726C0.812988 11.4429 0.493164 10.979 0.292969 10.481C0.0976562 9.97803 0 9.39209 0 8.72314ZM6.31348 13.3374C6.35742 13.3228 6.40137 13.3032 6.44531 13.2788C6.49414 13.2593 6.54785 13.23 6.60645 13.1909C7.43652 12.6929 8.13232 12.2656 8.69385 11.9092C9.25537 11.5479 9.70459 11.2061 10.0415 10.8838C10.3833 10.5615 10.6274 10.2124 10.7739 9.83643C10.9204 9.45557 10.9937 8.99414 10.9937 8.45215V3.42041C10.9937 3.29346 10.9766 3.19824 10.9424 3.13477C10.9082 3.06641 10.8423 3.01514 10.7446 2.98096C10.52 2.90283 10.2637 2.8125 9.97559 2.70996C9.69238 2.60742 9.39209 2.5 9.07471 2.3877C8.76221 2.27539 8.45215 2.16309 8.14453 2.05078C7.83691 1.93848 7.54639 1.8335 7.27295 1.73584C6.99951 1.6333 6.76514 1.54297 6.56982 1.46484C6.51123 1.44043 6.4624 1.42578 6.42334 1.4209C6.38428 1.41113 6.34766 1.40381 6.31348 1.39893V13.3374Z" fill="#7E50AB" style="fill:#7E50AB;fill:color(display-p3 0.4941 0.3137 0.6706);fill-opacity:1;"/>
</svg>
