<svg width="9" height="15" viewBox="0 0 9 15" fill="none" xmlns="http://www.w3.org/2000/svg">
<path d="M0 7.34619C0 7.20231 0.0249023 7.0695 0.074707 6.94775C0.130046 6.82601 0.213053 6.7098 0.32373 6.59912L6.79004 0.273926C6.97819 0.0913086 7.20508 0 7.4707 0C7.65332 0 7.81657 0.0442708 7.96045 0.132812C8.10986 0.21582 8.22884 0.329264 8.31738 0.473145C8.40592 0.617025 8.4502 0.780273 8.4502 0.962891C8.4502 1.22298 8.34782 1.4554 8.14307 1.66016L2.31592 7.34619L8.14307 13.0322C8.34782 13.237 8.4502 13.4722 8.4502 13.7378C8.4502 13.9149 8.40592 14.0754 8.31738 14.2192C8.22884 14.3687 8.10986 14.4849 7.96045 14.5679C7.81657 14.6564 7.65332 14.7007 7.4707 14.7007C7.20508 14.7007 6.97819 14.6066 6.79004 14.4185L0.32373 8.09326C0.213053 7.98258 0.130046 7.86637 0.074707 7.74463C0.0249023 7.62288 0 7.49007 0 7.34619Z" fill="#2A2A2A" style="fill:#2A2A2A;fill:color(display-p3 0.1647 0.1647 0.1647);fill-opacity:1;"/>
</svg>
