<svg width="9" height="15" viewBox="0 0 9 15" fill="none" xmlns="http://www.w3.org/2000/svg">
<path d="M8.4502 7.34619C8.4502 7.49007 8.42253 7.62288 8.36719 7.74463C8.31185 7.86637 8.22884 7.98258 8.11816 8.09326L1.65186 14.4185C1.46924 14.6066 1.24235 14.7007 0.971191 14.7007C0.794108 14.7007 0.630859 14.6564 0.481445 14.5679C0.332031 14.4849 0.213053 14.3687 0.124512 14.2192C0.0415039 14.0754 0 13.9149 0 13.7378C0 13.4722 0.0996094 13.237 0.298828 13.0322L6.12598 7.34619L0.298828 1.66016C0.0996094 1.4554 0 1.22298 0 0.962891C0 0.780273 0.0415039 0.617025 0.124512 0.473145C0.213053 0.329264 0.332031 0.21582 0.481445 0.132812C0.630859 0.0442708 0.794108 0 0.971191 0C1.24235 0 1.46924 0.0913086 1.65186 0.273926L8.11816 6.59912C8.22884 6.7098 8.31185 6.82601 8.36719 6.94775C8.42253 7.0695 8.4502 7.20231 8.4502 7.34619Z" fill="#2A2A2A" style="fill:#2A2A2A;fill:color(display-p3 0.1647 0.1647 0.1647);fill-opacity:1;"/>
</svg>
