<svg width="14" height="14" viewBox="0 0 14 14" fill="none" xmlns="http://www.w3.org/2000/svg">
<path d="M11.3311 0C11.7852 0 12.1733 0.0683594 12.4956 0.205078L0.212891 12.4878C0.0712891 12.1704 0.000488281 11.792 0.000488281 11.3525V2.45361C0.000488281 1.65283 0.210449 1.04492 0.630371 0.629883C1.05518 0.209961 1.67285 0 2.4834 0H11.3311ZM1.31885 13.6011L13.6016 1.31104C13.7432 1.6333 13.814 2.01416 13.814 2.45361V11.3525C13.814 12.1533 13.6016 12.7612 13.1768 13.1763C12.7568 13.5962 12.1416 13.8062 11.3311 13.8062H2.4834C2.03418 13.8062 1.646 13.7378 1.31885 13.6011Z" fill="#7D6945" style="fill:#7D6945;fill:color(display-p3 0.4902 0.4118 0.2706);fill-opacity:1;"/>
</svg>
