<svg width="52" height="52" viewBox="0 0 52 52" fill="none" xmlns="http://www.w3.org/2000/svg">
<path d="M42.3008 0C43.9961 0 45.4453 0.255208 46.6484 0.765625L0.792969 46.6211C0.264323 45.4362 0 44.0234 0 42.3828V9.16016C0 6.17057 0.783854 3.90104 2.35156 2.35156C3.9375 0.783854 6.24349 0 9.26953 0H42.3008ZM4.92188 50.7773L50.7773 4.89453C51.306 6.09766 51.5703 7.51953 51.5703 9.16016V42.3828C51.5703 45.3724 50.7773 47.6419 49.1914 49.1914C47.6237 50.7591 45.3268 51.543 42.3008 51.543H9.26953C7.59245 51.543 6.14323 51.2878 4.92188 50.7773Z" fill="#7D6945" style="fill:#7D6945;fill:color(display-p3 0.4902 0.4118 0.2706);fill-opacity:1;"/>
</svg>
