<svg width="37" height="34" viewBox="0 0 37 34" fill="none" xmlns="http://www.w3.org/2000/svg">
<path d="M5.95898 33.1348C4.01367 33.1348 2.53125 32.6309 1.51172 31.623C0.503906 30.627 0 29.168 0 27.2461V5.88867C0 3.9668 0.503906 2.50781 1.51172 1.51172C2.53125 0.503906 4.01367 0 5.95898 0H30.2695C32.2148 0 33.6914 0.503906 34.6992 1.51172C35.707 2.50781 36.2109 3.9668 36.2109 5.88867V27.2461C36.2109 29.168 35.707 30.627 34.6992 31.623C33.6914 32.6309 32.2148 33.1348 30.2695 33.1348H5.95898ZM6.06445 29.2324H30.1289C30.832 29.2324 31.3711 29.0566 31.7461 28.7051C32.1211 28.3418 32.3086 27.791 32.3086 27.0527V11.0566C32.3086 10.3301 32.1211 9.79102 31.7461 9.43945C31.3711 9.07617 30.832 8.89453 30.1289 8.89453H6.06445C5.37305 8.89453 4.83984 9.07617 4.46484 9.43945C4.08984 9.79102 3.90234 10.3301 3.90234 11.0566V27.0527C3.90234 27.791 4.08984 28.3418 4.46484 28.7051C4.83984 29.0566 5.37305 29.2324 6.06445 29.2324ZM14.7656 14.8184C14.4492 14.8184 14.2266 14.7598 14.0977 14.6426C13.9688 14.5137 13.9043 14.2969 13.9043 13.9922V12.9551C13.9043 12.6387 13.9688 12.4219 14.0977 12.3047C14.2266 12.1875 14.4492 12.1289 14.7656 12.1289H15.7852C16.1016 12.1289 16.3242 12.1875 16.4531 12.3047C16.582 12.4219 16.6465 12.6387 16.6465 12.9551V13.9922C16.6465 14.2969 16.582 14.5137 16.4531 14.6426C16.3242 14.7598 16.1016 14.8184 15.7852 14.8184H14.7656ZM20.4434 14.8184C20.127 14.8184 19.9043 14.7598 19.7754 14.6426C19.6582 14.5137 19.5996 14.2969 19.5996 13.9922V12.9551C19.5996 12.6387 19.6582 12.4219 19.7754 12.3047C19.9043 12.1875 20.127 12.1289 20.4434 12.1289H21.4805C21.7969 12.1289 22.0137 12.1875 22.1309 12.3047C22.2598 12.4219 22.3242 12.6387 22.3242 12.9551V13.9922C22.3242 14.2969 22.2598 14.5137 22.1309 14.6426C22.0137 14.7598 21.7969 14.8184 21.4805 14.8184H20.4434ZM26.1211 14.8184C25.8047 14.8184 25.582 14.7598 25.4531 14.6426C25.3242 14.5137 25.2598 14.2969 25.2598 13.9922V12.9551C25.2598 12.6387 25.3242 12.4219 25.4531 12.3047C25.582 12.1875 25.8047 12.1289 26.1211 12.1289H27.1406C27.4688 12.1289 27.6914 12.1875 27.8086 12.3047C27.9375 12.4219 28.002 12.6387 28.002 12.9551V13.9922C28.002 14.2969 27.9375 14.5137 27.8086 14.6426C27.6914 14.7598 27.4688 14.8184 27.1406 14.8184H26.1211ZM9.08789 20.4082C8.75977 20.4082 8.53125 20.3496 8.40234 20.2324C8.28516 20.1035 8.22656 19.8809 8.22656 19.5645V18.5449C8.22656 18.2285 8.28516 18.0117 8.40234 17.8945C8.53125 17.7773 8.75977 17.7188 9.08789 17.7188H10.125C10.4414 17.7188 10.6582 17.7773 10.7754 17.8945C10.8926 18.0117 10.9512 18.2285 10.9512 18.5449V19.5645C10.9512 19.8809 10.8926 20.1035 10.7754 20.2324C10.6582 20.3496 10.4414 20.4082 10.125 20.4082H9.08789ZM14.7656 20.4082C14.4492 20.4082 14.2266 20.3496 14.0977 20.2324C13.9688 20.1035 13.9043 19.8809 13.9043 19.5645V18.5449C13.9043 18.2285 13.9688 18.0117 14.0977 17.8945C14.2266 17.7773 14.4492 17.7188 14.7656 17.7188H15.7852C16.1016 17.7188 16.3242 17.7773 16.4531 17.8945C16.582 18.0117 16.6465 18.2285 16.6465 18.5449V19.5645C16.6465 19.8809 16.582 20.1035 16.4531 20.2324C16.3242 20.3496 16.1016 20.4082 15.7852 20.4082H14.7656ZM20.4434 20.4082C20.127 20.4082 19.9043 20.3496 19.7754 20.2324C19.6582 20.1035 19.5996 19.8809 19.5996 19.5645V18.5449C19.5996 18.2285 19.6582 18.0117 19.7754 17.8945C19.9043 17.7773 20.127 17.7188 20.4434 17.7188H21.4805C21.7969 17.7188 22.0137 17.7773 22.1309 17.8945C22.2598 18.0117 22.3242 18.2285 22.3242 18.5449V19.5645C22.3242 19.8809 22.2598 20.1035 22.1309 20.2324C22.0137 20.3496 21.7969 20.4082 21.4805 20.4082H20.4434ZM26.1211 20.4082C25.8047 20.4082 25.582 20.3496 25.4531 20.2324C25.3242 20.1035 25.2598 19.8809 25.2598 19.5645V18.5449C25.2598 18.2285 25.3242 18.0117 25.4531 17.8945C25.582 17.7773 25.8047 17.7188 26.1211 17.7188H27.1406C27.4688 17.7188 27.6914 17.7773 27.8086 17.8945C27.9375 18.0117 28.002 18.2285 28.002 18.5449V19.5645C28.002 19.8809 27.9375 20.1035 27.8086 20.2324C27.6914 20.3496 27.4688 20.4082 27.1406 20.4082H26.1211ZM9.08789 25.998C8.75977 25.998 8.53125 25.9395 8.40234 25.8223C8.28516 25.7051 8.22656 25.4824 8.22656 25.1543V24.1348C8.22656 23.8184 8.28516 23.6016 8.40234 23.4844C8.53125 23.3672 8.75977 23.3086 9.08789 23.3086H10.125C10.4414 23.3086 10.6582 23.3672 10.7754 23.4844C10.8926 23.6016 10.9512 23.8184 10.9512 24.1348V25.1543C10.9512 25.4824 10.8926 25.7051 10.7754 25.8223C10.6582 25.9395 10.4414 25.998 10.125 25.998H9.08789ZM14.7656 25.998C14.4492 25.998 14.2266 25.9395 14.0977 25.8223C13.9688 25.7051 13.9043 25.4824 13.9043 25.1543V24.1348C13.9043 23.8184 13.9688 23.6016 14.0977 23.4844C14.2266 23.3672 14.4492 23.3086 14.7656 23.3086H15.7852C16.1016 23.3086 16.3242 23.3672 16.4531 23.4844C16.582 23.6016 16.6465 23.8184 16.6465 24.1348V25.1543C16.6465 25.4824 16.582 25.7051 16.4531 25.8223C16.3242 25.9395 16.1016 25.998 15.7852 25.998H14.7656ZM20.4434 25.998C20.127 25.998 19.9043 25.9395 19.7754 25.8223C19.6582 25.7051 19.5996 25.4824 19.5996 25.1543V24.1348C19.5996 23.8184 19.6582 23.6016 19.7754 23.4844C19.9043 23.3672 20.127 23.3086 20.4434 23.3086H21.4805C21.7969 23.3086 22.0137 23.3672 22.1309 23.4844C22.2598 23.6016 22.3242 23.8184 22.3242 24.1348V25.1543C22.3242 25.4824 22.2598 25.7051 22.1309 25.8223C22.0137 25.9395 21.7969 25.998 21.4805 25.998H20.4434Z" fill="white" style="fill:white;fill-opacity:1;"/>
</svg>
