<svg width="17" height="16" viewBox="0 0 17 16" fill="none" xmlns="http://www.w3.org/2000/svg">
<path d="M2.72266 15.4976C1.82617 15.4976 1.14827 15.2679 0.688965 14.8086C0.229655 14.3548 0 13.6852 0 12.7998V2.69775C0 1.8068 0.229655 1.13444 0.688965 0.680664C1.14827 0.226888 1.82617 0 2.72266 0H14.1445C15.0465 0 15.7244 0.226888 16.1782 0.680664C16.6375 1.13444 16.8672 1.8068 16.8672 2.69775V12.7998C16.8672 13.6852 16.6375 14.3548 16.1782 14.8086C15.7244 15.2679 15.0465 15.4976 14.1445 15.4976H2.72266ZM2.70605 13.8623H14.1528C14.5015 13.8623 14.7671 13.7738 14.9497 13.5967C15.1379 13.4141 15.2319 13.1429 15.2319 12.7832V5.11328C15.2319 4.75358 15.1379 4.48242 14.9497 4.2998C14.7671 4.11719 14.5015 4.02588 14.1528 4.02588H2.70605C2.35742 4.02588 2.0918 4.11719 1.90918 4.2998C1.72656 4.48242 1.63525 4.75358 1.63525 5.11328V12.7832C1.63525 13.1429 1.72656 13.4141 1.90918 13.5967C2.0918 13.7738 2.35742 13.8623 2.70605 13.8623ZM6.83984 6.91455C6.69043 6.91455 6.58529 6.88688 6.52441 6.83154C6.46908 6.77067 6.44141 6.66829 6.44141 6.52441V6.03467C6.44141 5.88525 6.46908 5.78564 6.52441 5.73584C6.58529 5.6805 6.69043 5.65283 6.83984 5.65283H7.32959C7.47347 5.65283 7.57585 5.6805 7.63672 5.73584C7.69759 5.78564 7.72803 5.88525 7.72803 6.03467V6.52441C7.72803 6.66829 7.69759 6.77067 7.63672 6.83154C7.57585 6.88688 7.47347 6.91455 7.32959 6.91455H6.83984ZM9.5459 6.91455C9.40202 6.91455 9.29964 6.88688 9.23877 6.83154C9.18343 6.77067 9.15576 6.66829 9.15576 6.52441V6.03467C9.15576 5.88525 9.18343 5.78564 9.23877 5.73584C9.29964 5.6805 9.40202 5.65283 9.5459 5.65283H10.0356C10.1906 5.65283 10.2957 5.6805 10.3511 5.73584C10.4064 5.78564 10.4341 5.88525 10.4341 6.03467V6.52441C10.4341 6.66829 10.4064 6.77067 10.3511 6.83154C10.2957 6.88688 10.1906 6.91455 10.0356 6.91455H9.5459ZM12.2686 6.91455C12.1191 6.91455 12.014 6.88688 11.9531 6.83154C11.8978 6.77067 11.8701 6.66829 11.8701 6.52441V6.03467C11.8701 5.88525 11.8978 5.78564 11.9531 5.73584C12.014 5.6805 12.1191 5.65283 12.2686 5.65283H12.75C12.9049 5.65283 13.0101 5.6805 13.0654 5.73584C13.1208 5.78564 13.1484 5.88525 13.1484 6.03467V6.52441C13.1484 6.66829 13.1208 6.77067 13.0654 6.83154C13.0101 6.88688 12.9049 6.91455 12.75 6.91455H12.2686ZM4.12549 9.5791C3.97607 9.5791 3.87093 9.55143 3.81006 9.49609C3.75472 9.44076 3.72705 9.34115 3.72705 9.19727V8.70752C3.72705 8.55811 3.75472 8.45573 3.81006 8.40039C3.87093 8.34505 3.97607 8.31738 4.12549 8.31738H4.61523C4.75911 8.31738 4.85872 8.34505 4.91406 8.40039C4.97493 8.45573 5.00537 8.55811 5.00537 8.70752V9.19727C5.00537 9.34115 4.97493 9.44076 4.91406 9.49609C4.85872 9.55143 4.75911 9.5791 4.61523 9.5791H4.12549ZM6.83984 9.5791C6.69043 9.5791 6.58529 9.55143 6.52441 9.49609C6.46908 9.44076 6.44141 9.34115 6.44141 9.19727V8.70752C6.44141 8.55811 6.46908 8.45573 6.52441 8.40039C6.58529 8.34505 6.69043 8.31738 6.83984 8.31738H7.32959C7.47347 8.31738 7.57585 8.34505 7.63672 8.40039C7.69759 8.45573 7.72803 8.55811 7.72803 8.70752V9.19727C7.72803 9.34115 7.69759 9.44076 7.63672 9.49609C7.57585 9.55143 7.47347 9.5791 7.32959 9.5791H6.83984ZM9.5459 9.5791C9.40202 9.5791 9.29964 9.55143 9.23877 9.49609C9.18343 9.44076 9.15576 9.34115 9.15576 9.19727V8.70752C9.15576 8.55811 9.18343 8.45573 9.23877 8.40039C9.29964 8.34505 9.40202 8.31738 9.5459 8.31738H10.0356C10.1906 8.31738 10.2957 8.34505 10.3511 8.40039C10.4064 8.45573 10.4341 8.55811 10.4341 8.70752V9.19727C10.4341 9.34115 10.4064 9.44076 10.3511 9.49609C10.2957 9.55143 10.1906 9.5791 10.0356 9.5791H9.5459ZM12.2686 9.5791C12.1191 9.5791 12.014 9.55143 11.9531 9.49609C11.8978 9.44076 11.8701 9.34115 11.8701 9.19727V8.70752C11.8701 8.55811 11.8978 8.45573 11.9531 8.40039C12.014 8.34505 12.1191 8.31738 12.2686 8.31738H12.75C12.9049 8.31738 13.0101 8.34505 13.0654 8.40039C13.1208 8.45573 13.1484 8.55811 13.1484 8.70752V9.19727C13.1484 9.34115 13.1208 9.44076 13.0654 9.49609C13.0101 9.55143 12.9049 9.5791 12.75 9.5791H12.2686ZM4.12549 12.252C3.97607 12.252 3.87093 12.2271 3.81006 12.1772C3.75472 12.1219 3.72705 12.0168 3.72705 11.8618V11.3804C3.72705 11.231 3.75472 11.1286 3.81006 11.0732C3.87093 11.0179 3.97607 10.9902 4.12549 10.9902H4.61523C4.75911 10.9902 4.85872 11.0179 4.91406 11.0732C4.97493 11.1286 5.00537 11.231 5.00537 11.3804V11.8618C5.00537 12.0168 4.97493 12.1219 4.91406 12.1772C4.85872 12.2271 4.75911 12.252 4.61523 12.252H4.12549ZM6.83984 12.252C6.69043 12.252 6.58529 12.2271 6.52441 12.1772C6.46908 12.1219 6.44141 12.0168 6.44141 11.8618V11.3804C6.44141 11.231 6.46908 11.1286 6.52441 11.0732C6.58529 11.0179 6.69043 10.9902 6.83984 10.9902H7.32959C7.47347 10.9902 7.57585 11.0179 7.63672 11.0732C7.69759 11.1286 7.72803 11.231 7.72803 11.3804V11.8618C7.72803 12.0168 7.69759 12.1219 7.63672 12.1772C7.57585 12.2271 7.47347 12.252 7.32959 12.252H6.83984ZM9.5459 12.252C9.40202 12.252 9.29964 12.2271 9.23877 12.1772C9.18343 12.1219 9.15576 12.0168 9.15576 11.8618V11.3804C9.15576 11.231 9.18343 11.1286 9.23877 11.0732C9.29964 11.0179 9.40202 10.9902 9.5459 10.9902H10.0356C10.1906 10.9902 10.2957 11.0179 10.3511 11.0732C10.4064 11.1286 10.4341 11.231 10.4341 11.3804V11.8618C10.4341 12.0168 10.4064 12.1219 10.3511 12.1772C10.2957 12.2271 10.1906 12.252 10.0356 12.252H9.5459Z" fill="#2E7693" style="fill:#2E7693;fill:color(display-p3 0.1799 0.4609 0.5760);fill-opacity:1;"/>
</svg>
