<svg width="28" height="28" viewBox="0 0 28 28" fill="none" xmlns="http://www.w3.org/2000/svg">
<rect width="28" height="28" rx="14" fill="#2E7693" style="fill:#2E7693;fill:color(display-p3 0.1799 0.4609 0.5760);fill-opacity:1;"/>
<path d="M12.3262 20.2451C11.9746 20.2451 11.6743 20.0889 11.4253 19.7764L7.63135 15.0303C7.53857 14.918 7.47021 14.8081 7.42627 14.7007C7.38721 14.5933 7.36768 14.4834 7.36768 14.3711C7.36768 14.1172 7.45068 13.9072 7.6167 13.7412C7.7876 13.5752 8.00244 13.4922 8.26123 13.4922C8.55908 13.4922 8.81055 13.6265 9.01562 13.895L12.2969 18.1064L18.6543 8.00635C18.7666 7.83545 18.8813 7.71582 18.9985 7.64746C19.1157 7.57422 19.2671 7.5376 19.4526 7.5376C19.7065 7.5376 19.9141 7.61816 20.0752 7.7793C20.2363 7.93555 20.3169 8.14062 20.3169 8.39453C20.3169 8.49707 20.2998 8.60205 20.2656 8.70947C20.2314 8.81201 20.1777 8.92188 20.1045 9.03906L13.2197 19.769C13.0049 20.0864 12.707 20.2451 12.3262 20.2451Z" fill="white" style="fill:white;fill-opacity:1;"/>
</svg>
