<svg width="21" height="18" viewBox="0 0 21 18" fill="none" xmlns="http://www.w3.org/2000/svg">
<path d="M8.65771 17.3071C7.46794 17.3071 6.3501 17.0802 5.3042 16.6265C4.26383 16.1782 3.34521 15.5557 2.54834 14.7588C1.75146 13.9619 1.12614 13.0433 0.672363 12.0029C0.224121 10.957 0 9.83919 0 8.64941C0 7.46517 0.224121 6.35286 0.672363 5.3125C1.12061 4.2666 1.74316 3.34521 2.54004 2.54834C3.33691 1.75146 4.2583 1.12891 5.3042 0.680664C6.3501 0.226888 7.46517 0 8.64941 0C9.75065 0 10.791 0.193685 11.7705 0.581055C12.75 0.968424 13.6271 1.51074 14.4019 2.20801C15.1821 2.90527 15.8185 3.71598 16.311 4.64014C16.8035 5.56429 17.1162 6.56315 17.249 7.63672C16.9447 7.54818 16.6182 7.49837 16.2695 7.4873C15.9209 7.47624 15.5999 7.49837 15.3066 7.55371C15.1738 6.7513 14.911 6.007 14.5181 5.3208C14.1307 4.62907 13.6382 4.02865 13.0405 3.51953C12.4484 3.00488 11.7788 2.60645 11.0317 2.32422C10.2847 2.03646 9.49056 1.89258 8.64941 1.89258C7.71419 1.89258 6.83708 2.06689 6.01807 2.41553C5.20459 2.76416 4.48796 3.24837 3.86816 3.86816C3.25391 4.48796 2.77246 5.20736 2.42383 6.02637C2.08073 6.83984 1.90918 7.71419 1.90918 8.64941C1.90918 9.59017 2.08073 10.4701 2.42383 11.2891C2.77246 12.1025 3.25391 12.8192 3.86816 13.439C4.48796 14.0532 5.20459 14.5347 6.01807 14.8833C6.83708 15.2319 7.71696 15.4062 8.65771 15.4062C9.05062 15.4062 9.43522 15.373 9.81152 15.3066C10.1934 15.2402 10.5586 15.1406 10.9072 15.0078C11.1341 15.6387 11.4689 16.1893 11.9116 16.6597C11.408 16.87 10.8823 17.0304 10.3345 17.1411C9.78662 17.2518 9.2277 17.3071 8.65771 17.3071ZM4.56543 9.77832C4.36621 9.77832 4.19466 9.70915 4.05078 9.5708C3.91243 9.43245 3.84326 9.2609 3.84326 9.05615C3.84326 8.85693 3.91243 8.68815 4.05078 8.5498C4.19466 8.41146 4.36621 8.34229 4.56543 8.34229H7.93555V3.74365C7.93555 3.5389 8.00472 3.36735 8.14307 3.229C8.28141 3.09066 8.4502 3.02148 8.64941 3.02148C8.84863 3.02148 9.01742 3.09066 9.15576 3.229C9.29964 3.36735 9.37158 3.5389 9.37158 3.74365V9.05615C9.37158 9.2609 9.29964 9.43245 9.15576 9.5708C9.01742 9.70915 8.84863 9.77832 8.64941 9.77832H4.56543ZM16.0122 17.3154C15.4201 17.3154 14.8639 17.202 14.3438 16.9751C13.8236 16.7482 13.3643 16.4355 12.9658 16.0371C12.5729 15.6442 12.263 15.1877 12.0361 14.6675C11.8092 14.1473 11.6958 13.5911 11.6958 12.999C11.6958 12.4014 11.8092 11.8452 12.0361 11.3306C12.263 10.8104 12.5729 10.3511 12.9658 9.95264C13.3643 9.5542 13.8236 9.2443 14.3438 9.02295C14.8639 8.79606 15.4201 8.68262 16.0122 8.68262C16.6043 8.68262 17.1605 8.79606 17.6807 9.02295C18.2008 9.2443 18.6602 9.5542 19.0586 9.95264C19.457 10.3455 19.7669 10.8021 19.9883 11.3223C20.2096 11.8424 20.3203 12.4014 20.3203 12.999C20.3203 13.5856 20.2069 14.139 19.98 14.6592C19.7586 15.1794 19.4487 15.6387 19.0503 16.0371C18.6519 16.4355 18.1925 16.7482 17.6724 16.9751C17.1522 17.202 16.5988 17.3154 16.0122 17.3154ZM15.4893 15.3481C15.7217 15.3481 15.896 15.2651 16.0122 15.0991L18.4111 11.8286C18.4554 11.7677 18.4858 11.7041 18.5024 11.6377C18.5246 11.5713 18.5356 11.5104 18.5356 11.4551C18.5356 11.2725 18.472 11.1203 18.3447 10.9985C18.2174 10.8768 18.0653 10.8159 17.8882 10.8159C17.6668 10.8159 17.487 10.9128 17.3486 11.1064L15.4395 13.7461L14.5181 12.7251C14.4627 12.6587 14.3936 12.6089 14.3105 12.5757C14.2331 12.5425 14.1445 12.5259 14.0449 12.5259C13.8734 12.5259 13.7212 12.584 13.5884 12.7002C13.4611 12.8164 13.3975 12.9741 13.3975 13.1733C13.3975 13.2508 13.4141 13.3311 13.4473 13.4141C13.4805 13.4915 13.5275 13.5635 13.5884 13.6299L14.9663 15.1323C15.0327 15.2098 15.113 15.2651 15.207 15.2983C15.3011 15.3315 15.3952 15.3481 15.4893 15.3481Z" fill="black" style="fill:black;fill-opacity:1;"/>
</svg>
