<svg width="18" height="18" viewBox="0 0 18 18" fill="none" xmlns="http://www.w3.org/2000/svg">
<path d="M4.57373 9.78662C4.36898 9.78662 4.19466 9.71745 4.05078 9.5791C3.91243 9.44076 3.84326 9.26921 3.84326 9.06445C3.84326 8.86523 3.91243 8.69645 4.05078 8.55811C4.19466 8.41976 4.36898 8.35059 4.57373 8.35059H7.93555V3.75195C7.93555 3.5472 8.00472 3.37565 8.14307 3.2373C8.28141 3.09896 8.4502 3.02979 8.64941 3.02979C8.85417 3.02979 9.02572 3.09896 9.16406 3.2373C9.30241 3.37565 9.37158 3.5472 9.37158 3.75195V9.06445C9.37158 9.26921 9.30241 9.44076 9.16406 9.5791C9.02572 9.71745 8.85417 9.78662 8.64941 9.78662H4.57373ZM8.65771 17.3154C7.4624 17.3154 6.3418 17.0885 5.2959 16.6348C4.25 16.1865 3.32861 15.5667 2.53174 14.7754C1.7404 13.984 1.12061 13.0654 0.672363 12.0195C0.224121 10.9736 0 9.85303 0 8.65771C0 7.4624 0.224121 6.3418 0.672363 5.2959C1.12061 4.25 1.7404 3.33138 2.53174 2.54004C3.32861 1.74316 4.25 1.12061 5.2959 0.672363C6.3418 0.224121 7.4624 0 8.65771 0C9.85303 0 10.9736 0.224121 12.0195 0.672363C13.0654 1.12061 13.984 1.74316 14.7754 2.54004C15.5667 3.33138 16.1865 4.25 16.6348 5.2959C17.0885 6.3418 17.3154 7.4624 17.3154 8.65771C17.3154 9.85303 17.0885 10.9736 16.6348 12.0195C16.1865 13.0654 15.5667 13.984 14.7754 14.7754C13.984 15.5667 13.0654 16.1865 12.0195 16.6348C10.9736 17.0885 9.85303 17.3154 8.65771 17.3154ZM8.65771 15.4146C9.59294 15.4146 10.4673 15.2402 11.2808 14.8916C12.0998 14.543 12.8164 14.0588 13.4307 13.439C14.0505 12.8136 14.5347 12.0942 14.8833 11.2808C15.2375 10.4618 15.4146 9.5874 15.4146 8.65771C15.4146 7.72249 15.2375 6.84814 14.8833 6.03467C14.5347 5.21566 14.0505 4.49626 13.4307 3.87646C12.8164 3.25667 12.0998 2.77246 11.2808 2.42383C10.4673 2.0752 9.59294 1.90088 8.65771 1.90088C7.72249 1.90088 6.84538 2.0752 6.02637 2.42383C5.21289 2.77246 4.49626 3.25667 3.87646 3.87646C3.25667 4.49626 2.77246 5.21566 2.42383 6.03467C2.0752 6.84814 1.90088 7.72249 1.90088 8.65771C1.90088 9.5874 2.0752 10.4618 2.42383 11.2808C2.77246 12.0942 3.25667 12.8136 3.87646 13.439C4.49626 14.0588 5.21289 14.543 6.02637 14.8916C6.84538 15.2402 7.72249 15.4146 8.65771 15.4146Z" fill="black" style="fill:black;fill-opacity:1;"/>
</svg>
