<svg width="14" height="14" viewBox="0 0 14 14" fill="none" xmlns="http://www.w3.org/2000/svg">
<path d="M11.8203 0.290527C11.9421 0.168783 12.0804 0.0913086 12.2354 0.0581055C12.3958 0.0193685 12.5535 0.0193685 12.7085 0.0581055C12.869 0.0968424 13.0129 0.177083 13.1401 0.298828C13.2563 0.415039 13.3338 0.553385 13.3726 0.713867C13.4168 0.874349 13.4168 1.03483 13.3726 1.19531C13.3338 1.35026 13.2563 1.48861 13.1401 1.61035L1.61865 13.1318C1.50244 13.248 1.3641 13.3255 1.20361 13.3643C1.04867 13.403 0.890951 13.403 0.730469 13.3643C0.569987 13.3255 0.426107 13.2453 0.298828 13.1235C0.177083 13.0073 0.0968424 12.869 0.0581055 12.7085C0.0193685 12.548 0.0193685 12.3875 0.0581055 12.2271C0.102376 12.0666 0.182617 11.931 0.298828 11.8203L11.8203 0.290527ZM13.1401 11.812C13.2563 11.9338 13.3338 12.0749 13.3726 12.2354C13.4113 12.3903 13.4113 12.548 13.3726 12.7085C13.3338 12.869 13.2563 13.0073 13.1401 13.1235C13.0184 13.2453 12.8773 13.3255 12.7168 13.3643C12.5563 13.403 12.3958 13.403 12.2354 13.3643C12.0749 13.3255 11.9365 13.248 11.8203 13.1318L0.298828 1.60205C0.182617 1.49137 0.105143 1.35579 0.0664062 1.19531C0.0276693 1.03483 0.0276693 0.874349 0.0664062 0.713867C0.105143 0.553385 0.182617 0.415039 0.298828 0.298828C0.420573 0.177083 0.561686 0.0968424 0.722168 0.0581055C0.88265 0.0193685 1.04313 0.0193685 1.20361 0.0581055C1.3641 0.0968424 1.50244 0.174316 1.61865 0.290527L13.1401 11.812Z" fill="#FAF9F6" style="fill:#FAF9F6;fill:color(display-p3 0.9804 0.9765 0.9647);fill-opacity:1;"/>
</svg>
