<svg width="14" height="14" viewBox="0 0 14 14" fill="none" xmlns="http://www.w3.org/2000/svg">
<path d="M11.7456 0.332031C11.884 0.199219 12.0417 0.110677 12.2188 0.0664062C12.4014 0.0221354 12.584 0.0221354 12.7666 0.0664062C12.9492 0.110677 13.1097 0.204753 13.248 0.348633C13.3864 0.481445 13.4777 0.63916 13.522 0.821777C13.5718 1.00439 13.5745 1.18701 13.5303 1.36963C13.486 1.55225 13.3975 1.70996 13.2646 1.84277L1.85107 13.2563C1.7238 13.3836 1.56608 13.4694 1.37793 13.5137C1.19531 13.5635 1.00993 13.5635 0.821777 13.5137C0.63916 13.4694 0.478678 13.3809 0.340332 13.248C0.201986 13.1097 0.110677 12.9492 0.0664062 12.7666C0.0221354 12.584 0.0221354 12.4014 0.0664062 12.2188C0.110677 12.0361 0.199219 11.8784 0.332031 11.7456L11.7456 0.332031ZM13.2646 11.7456C13.3975 11.8784 13.4832 12.0361 13.522 12.2188C13.5662 12.4014 13.5662 12.584 13.522 12.7666C13.4777 12.9492 13.3864 13.1097 13.248 13.248C13.1152 13.3864 12.9548 13.4777 12.7666 13.522C12.584 13.5662 12.4014 13.5662 12.2188 13.522C12.0361 13.4777 11.8784 13.3892 11.7456 13.2563L0.332031 1.84277C0.204753 1.71549 0.118978 1.56055 0.074707 1.37793C0.0304362 1.18978 0.0304362 1.00439 0.074707 0.821777C0.118978 0.63916 0.20752 0.478678 0.340332 0.340332C0.478678 0.201986 0.63916 0.110677 0.821777 0.0664062C1.00993 0.0221354 1.19531 0.0221354 1.37793 0.0664062C1.56055 0.110677 1.71826 0.199219 1.85107 0.332031L13.2646 11.7456Z" fill="black" style="fill:black;fill-opacity:1;"/>
</svg>
