<svg width="17" height="19" viewBox="0 0 17 19" fill="none" xmlns="http://www.w3.org/2000/svg">
<path d="M5.64453 16.1616C5.82161 16.1616 5.96549 16.109 6.07617 16.0039C6.18685 15.8988 6.23942 15.7604 6.23389 15.5889L5.96826 6.55762C5.96826 6.38607 5.91016 6.25049 5.79395 6.15088C5.68327 6.04574 5.54215 5.99316 5.37061 5.99316C5.18799 5.99316 5.04134 6.04574 4.93066 6.15088C4.82552 6.25602 4.77572 6.39437 4.78125 6.56592L5.03027 15.5889C5.04134 15.766 5.09945 15.9071 5.20459 16.0122C5.31527 16.1118 5.46191 16.1616 5.64453 16.1616ZM8.18457 16.1616C8.36719 16.1616 8.51383 16.1118 8.62451 16.0122C8.74072 15.9071 8.79883 15.7687 8.79883 15.5972V6.56592C8.79883 6.39437 8.74072 6.25602 8.62451 6.15088C8.51383 6.04574 8.36719 5.99316 8.18457 5.99316C8.00749 5.99316 7.86084 6.04574 7.74463 6.15088C7.63395 6.25602 7.57861 6.39437 7.57861 6.56592V15.5972C7.57861 15.7687 7.63395 15.9071 7.74463 16.0122C7.86084 16.1118 8.00749 16.1616 8.18457 16.1616ZM10.7329 16.1616C10.9155 16.1616 11.0594 16.1118 11.1646 16.0122C11.2752 15.9126 11.3333 15.7715 11.3389 15.5889L11.5879 6.56592C11.5934 6.39437 11.5409 6.25602 11.4302 6.15088C11.325 6.04574 11.1812 5.99316 10.9985 5.99316C10.8325 5.99316 10.6914 6.04574 10.5752 6.15088C10.4645 6.25049 10.4064 6.38883 10.4009 6.56592L10.1436 15.5889C10.138 15.766 10.1878 15.9071 10.293 16.0122C10.4036 16.1118 10.5503 16.1616 10.7329 16.1616ZM4.41602 3.81836V2.02539C4.41602 1.389 4.60693 0.893717 4.98877 0.539551C5.37614 0.17985 5.91292 0 6.59912 0H9.75342C10.4396 0 10.9764 0.17985 11.3638 0.539551C11.7511 0.893717 11.9448 1.389 11.9448 2.02539V3.81836H10.4092V2.1001C10.4092 1.88981 10.34 1.72103 10.2017 1.59375C10.0633 1.46094 9.87793 1.39453 9.64551 1.39453H6.70703C6.48014 1.39453 6.29753 1.46094 6.15918 1.59375C6.02083 1.72103 5.95166 1.88981 5.95166 2.1001V3.81836H4.41602ZM0.73877 4.73145C0.534017 4.73145 0.359701 4.65951 0.21582 4.51562C0.0719401 4.37174 0 4.19743 0 3.99268C0 3.79346 0.0719401 3.62467 0.21582 3.48633C0.359701 3.34245 0.534017 3.27051 0.73877 3.27051H15.6387C15.8434 3.27051 16.015 3.33968 16.1533 3.47803C16.2972 3.61637 16.3691 3.78792 16.3691 3.99268C16.3691 4.19743 16.2972 4.37174 16.1533 4.51562C16.015 4.65951 15.8434 4.73145 15.6387 4.73145H0.73877ZM4.37451 18.7349C3.73258 18.7349 3.21794 18.555 2.83057 18.1953C2.44873 17.8356 2.24398 17.3348 2.21631 16.6929L1.63525 4.55713H14.7339L14.1611 16.6846C14.1335 17.3265 13.9259 17.8273 13.5386 18.187C13.1512 18.5522 12.6393 18.7349 12.0029 18.7349H4.37451Z" fill="#C93B30" style="fill:#C93B30;fill:color(display-p3 0.7882 0.2314 0.1882);fill-opacity:1;"/>
</svg>
