<svg width="11" height="2" viewBox="0 0 11 2" fill="none" xmlns="http://www.w3.org/2000/svg">
<path d="M0.70459 1.42822C0.581868 1.42822 0.467611 1.39648 0.361816 1.33301C0.256022 1.2653 0.169271 1.17855 0.101562 1.07275C0.0338542 0.962728 0 0.842122 0 0.710938C0 0.583984 0.0338542 0.465495 0.101562 0.355469C0.169271 0.245443 0.256022 0.158691 0.361816 0.0952148C0.467611 0.0317383 0.581868 0 0.70459 0H9.91504C10.0378 0 10.152 0.0317383 10.2578 0.0952148C10.3678 0.158691 10.4546 0.245443 10.5181 0.355469C10.5858 0.465495 10.6196 0.583984 10.6196 0.710938C10.6196 0.842122 10.5858 0.962728 10.5181 1.07275C10.4546 1.17855 10.3678 1.2653 10.2578 1.33301C10.152 1.39648 10.0378 1.42822 9.91504 1.42822H0.70459Z" fill="#7E50AB" style="fill:#7E50AB;fill:color(display-p3 0.4941 0.3137 0.6706);fill-opacity:1;"/>
</svg>
