<svg width="46" height="7" viewBox="0 0 46 7" fill="none" xmlns="http://www.w3.org/2000/svg">
<path d="M3.03516 6.15234C2.50651 6.15234 2.01432 6.01562 1.55859 5.74219C1.10286 5.45052 0.729167 5.07682 0.4375 4.62109C0.145833 4.14714 0 3.6276 0 3.0625C0 2.51562 0.145833 2.00521 0.4375 1.53125C0.729167 1.05729 1.10286 0.683594 1.55859 0.410156C2.01432 0.136719 2.50651 0 3.03516 0H42.7109C43.2396 0 43.7318 0.136719 44.1875 0.410156C44.6615 0.683594 45.0352 1.05729 45.3086 1.53125C45.6003 2.00521 45.7461 2.51562 45.7461 3.0625C45.7461 3.6276 45.6003 4.14714 45.3086 4.62109C45.0352 5.07682 44.6615 5.45052 44.1875 5.74219C43.7318 6.01562 43.2396 6.15234 42.7109 6.15234H3.03516Z" fill="#7E50AB" fill-opacity="0.16" style="fill:#7E50AB;fill:color(display-p3 0.4941 0.3137 0.6706);fill-opacity:0.16;"/>
</svg>
