<svg width="17" height="20" viewBox="0 0 17 20" fill="none" xmlns="http://www.w3.org/2000/svg">
<path d="M3.06299 19.1001C2.80843 19.1001 2.61751 19.0309 2.49023 18.8926C2.36849 18.7542 2.30762 18.5827 2.30762 18.3779C2.30762 18.3226 2.31315 18.27 2.32422 18.2202C2.33529 18.1704 2.34635 18.1234 2.35742 18.0791L3.66064 13.1484H3.1709C2.59538 13.1484 2.1416 12.988 1.80957 12.667C1.48307 12.346 1.31982 11.9006 1.31982 11.3306V8.10986H0.805176C0.56722 8.10986 0.373535 8.03792 0.224121 7.89404C0.074707 7.75016 0 7.56478 0 7.33789C0 7.11654 0.0691732 6.93392 0.20752 6.79004C0.3514 6.64062 0.539551 6.56592 0.771973 6.56592H15.5723C15.8102 6.56592 16.0039 6.63786 16.1533 6.78174C16.3027 6.92562 16.3774 7.111 16.3774 7.33789C16.3774 7.56478 16.3 7.75016 16.145 7.89404C15.9956 8.03792 15.7964 8.10986 15.5474 8.10986H12.6421V8.69922C12.6421 9.18066 12.5176 9.54036 12.2686 9.77832C12.0251 10.0163 11.6598 10.1353 11.1729 10.1353H5.3208C4.83382 10.1353 4.46582 10.0163 4.2168 9.77832C3.96777 9.54036 3.84326 9.18066 3.84326 8.69922V8.10986H2.71436V10.2598C2.71436 10.6029 2.80843 10.863 2.99658 11.04C3.18473 11.2171 3.45589 11.3057 3.81006 11.3057H13.3228C13.6105 11.3057 13.8429 11.3914 14.02 11.563C14.2026 11.7345 14.2939 11.9614 14.2939 12.2437C14.2939 12.5037 14.1971 12.7196 14.0034 12.8911C13.8153 13.0627 13.5745 13.1484 13.2812 13.1484H12.7583L14.0615 18.0791C14.0892 18.1676 14.103 18.2645 14.103 18.3696C14.103 18.5854 14.0366 18.7598 13.9038 18.8926C13.7765 19.0309 13.5911 19.1001 13.3477 19.1001C13.1429 19.1001 12.9797 19.0448 12.8579 18.9341C12.7417 18.8289 12.6532 18.6685 12.5923 18.4526L11.9116 15.8628H4.49902L3.81836 18.4526C3.76302 18.6685 3.67725 18.8289 3.56104 18.9341C3.45036 19.0448 3.28434 19.1001 3.06299 19.1001ZM4.89746 14.4019H11.5132L11.1895 13.1484H5.22119L4.89746 14.4019ZM5.3291 5.3208C4.33301 5.3208 3.83496 4.83382 3.83496 3.85986V1.45264C3.83496 0.484212 4.33301 0 5.3291 0H11.1812C12.1772 0 12.6753 0.484212 12.6753 1.45264V3.85986C12.6753 4.83382 12.1772 5.3208 11.1812 5.3208H5.3291Z" fill="#2A2A2A" style="fill:#2A2A2A;fill:color(display-p3 0.1647 0.1647 0.1647);fill-opacity:1;"/>
</svg>
