<svg width="36" height="42" viewBox="0 0 36 42" fill="none" xmlns="http://www.w3.org/2000/svg">
<path d="M6.85547 41.5547C6.26953 41.5547 5.83008 41.3906 5.53711 41.0625C5.24414 40.7344 5.09766 40.3242 5.09766 39.832C5.09766 39.7148 5.10352 39.5977 5.11523 39.4805C5.13867 39.3633 5.16797 39.252 5.20312 39.1465L7.94531 28.793H6.94336C5.67773 28.793 4.68164 28.4414 3.95508 27.7383C3.24023 27.0352 2.88281 26.0566 2.88281 24.8027V17.8066H1.86328C1.32422 17.8066 0.878906 17.6367 0.527344 17.2969C0.175781 16.957 0 16.5234 0 15.9961C0 15.4805 0.164062 15.0527 0.492188 14.7129C0.832031 14.3613 1.27148 14.1855 1.81055 14.1855H33.4512C34.002 14.1855 34.4531 14.3555 34.8047 14.6953C35.1562 15.0352 35.332 15.4688 35.332 15.9961C35.332 16.5234 35.1504 16.957 34.7871 17.2969C34.4238 17.6367 33.9609 17.8066 33.3984 17.8066H27.3867V19.0547C27.3867 20.0742 27.1172 20.8477 26.5781 21.375C26.0391 21.8906 25.2422 22.1484 24.1875 22.1484H11.373C10.3184 22.1484 9.52148 21.8906 8.98242 21.375C8.44336 20.8477 8.17383 20.0742 8.17383 19.0547V17.8066H6.01172V22.2012C6.01172 22.9863 6.22266 23.5781 6.64453 23.9766C7.07812 24.375 7.69922 24.5742 8.50781 24.5742H28.7051C29.3496 24.5742 29.8711 24.7734 30.2695 25.1719C30.6797 25.5703 30.8848 26.0859 30.8848 26.7188C30.8848 27.293 30.668 27.7852 30.2344 28.1953C29.8008 28.5938 29.2676 28.793 28.6348 28.793H27.4395L30.1816 39.1465C30.2402 39.3691 30.2695 39.5977 30.2695 39.832C30.2695 40.3359 30.1172 40.7461 29.8125 41.0625C29.5078 41.3906 29.0742 41.5547 28.5117 41.5547C28.0195 41.5547 27.6328 41.4316 27.3516 41.1855C27.0703 40.9395 26.8652 40.5703 26.7363 40.0781L25.3125 34.6641H10.0723L8.63086 40.0781C8.50195 40.5703 8.30273 40.9395 8.0332 41.1855C7.77539 41.4316 7.38281 41.5547 6.85547 41.5547ZM10.9688 31.3066H24.416L23.748 28.793H11.6191L10.9688 31.3066ZM11.4609 11.5137C9.29297 11.5137 8.20898 10.459 8.20898 8.34961V3.14648C8.20898 1.04883 9.29297 0 11.4609 0H24.1699C26.3379 0 27.4219 1.04883 27.4219 3.14648V8.34961C27.4219 10.459 26.3379 11.5137 24.1699 11.5137H11.4609Z" fill="white" style="fill:white;fill-opacity:1;"/>
</svg>
