<svg width="54" height="63" viewBox="0 0 54 63" fill="none" xmlns="http://www.w3.org/2000/svg">
<path d="M10.09 62.918C9.2515 62.918 8.62259 62.6901 8.20332 62.2344C7.80228 61.7786 7.60176 61.2135 7.60176 60.5391C7.60176 60.3568 7.61999 60.1836 7.65645 60.0195C7.69291 59.8555 7.72937 59.7005 7.76582 59.5547L12.0588 43.3125H10.4455C8.54968 43.3125 7.05489 42.7839 5.96114 41.7266C4.88562 40.6693 4.34785 39.2018 4.34785 37.3242V26.7148H2.65254C1.86869 26.7148 1.23067 26.4779 0.73848 26.0039C0.246292 25.5299 0.000198364 24.9193 0.000198364 24.1719C0.000198364 23.4427 0.228063 22.8411 0.683792 22.3672C1.15775 21.875 1.77754 21.6289 2.54317 21.6289H51.2971C52.0809 21.6289 52.7189 21.8659 53.2111 22.3398C53.7033 22.8138 53.9494 23.4245 53.9494 24.1719C53.9494 24.9193 53.6942 25.5299 53.1838 26.0039C52.6916 26.4779 52.0354 26.7148 51.215 26.7148H41.6447V28.6562C41.6447 30.2422 41.2346 31.4271 40.4143 32.2109C39.6122 32.9948 38.4091 33.3867 36.8049 33.3867H17.5275C15.9234 33.3867 14.7111 32.9948 13.8908 32.2109C13.0705 31.4271 12.6604 30.2422 12.6604 28.6562V26.7148H8.9416V33.7969C8.9416 34.9271 9.2515 35.7839 9.87129 36.3672C10.4911 36.9505 11.3843 37.2422 12.551 37.2422H43.8869C44.8348 37.2422 45.6005 37.5247 46.1838 38.0898C46.7854 38.6549 47.0861 39.4023 47.0861 40.332C47.0861 41.1888 46.7671 41.8997 46.1291 42.4648C45.5093 43.0299 44.7163 43.3125 43.7502 43.3125H42.0275L46.3205 59.5547C46.4117 59.8464 46.4572 60.1654 46.4572 60.5117C46.4572 61.2227 46.2385 61.7969 45.801 62.2344C45.3817 62.6901 44.771 62.918 43.9689 62.918C43.2945 62.918 42.7567 62.7357 42.3557 62.3711C41.9729 62.0247 41.6812 61.4961 41.4807 60.7852L39.2385 52.2539H14.8205L12.5783 60.7852C12.396 61.4961 12.1135 62.0247 11.7307 62.3711C11.3661 62.7357 10.8192 62.918 10.09 62.918ZM16.133 47.4414H37.926L36.8596 43.3125H17.1994L16.133 47.4414ZM17.5549 17.5273C14.2736 17.5273 12.633 15.9232 12.633 12.7148V4.78516C12.633 1.59505 14.2736 0 17.5549 0H36.8322C40.1135 0 41.7541 1.59505 41.7541 4.78516V12.7148C41.7541 15.9232 40.1135 17.5273 36.8322 17.5273H17.5549Z" fill="#9A9A9A" style="fill:#9A9A9A;fill:color(display-p3 0.6039 0.6039 0.6039);fill-opacity:1;"/>
</svg>
