<svg width="17" height="14" viewBox="0 0 17 14" fill="none" xmlns="http://www.w3.org/2000/svg">
<path d="M3.41162 13.7461L5.04688 12.1108H15.7051C15.9264 12.1108 16.1174 12.1938 16.2778 12.3599C16.4383 12.5203 16.5186 12.7113 16.5186 12.9326C16.5186 13.1595 16.4383 13.3504 16.2778 13.5054C16.1174 13.6659 15.9264 13.7461 15.7051 13.7461H3.41162ZM2.48193 12.9741L0.473145 13.7461C0.3514 13.7904 0.240723 13.7627 0.141113 13.6631C0.0470378 13.5635 0.0221354 13.45 0.0664062 13.3228L0.879883 11.3721L10.2183 2.04199L11.812 3.64404L2.48193 12.9741ZM12.6089 2.86377L10.9985 1.26172L11.895 0.373535C12.1164 0.157715 12.346 0.0415039 12.584 0.0249023C12.8219 0.00830078 13.0433 0.0996094 13.248 0.298828L13.5718 0.630859C13.7765 0.835612 13.8734 1.0542 13.8623 1.28662C13.8512 1.51904 13.7323 1.7487 13.5054 1.97559L12.6089 2.86377Z" fill="#2E7693" style="fill:#2E7693;fill:color(display-p3 0.1799 0.4609 0.5760);fill-opacity:1;"/>
</svg>
