<svg width="14" height="14" viewBox="0 0 14 14" fill="none" xmlns="http://www.w3.org/2000/svg">
<path d="M7.88574 12.9741C7.88574 13.2231 7.79443 13.439 7.61182 13.6216C7.4292 13.8042 7.20785 13.8955 6.94775 13.8955C6.6932 13.8955 6.47461 13.8042 6.29199 13.6216C6.10938 13.439 6.01807 13.2231 6.01807 12.9741V0.929688C6.01807 0.67513 6.10938 0.456543 6.29199 0.273926C6.47461 0.0913086 6.6932 0 6.94775 0C7.20785 0 7.4292 0.0913086 7.61182 0.273926C7.79443 0.456543 7.88574 0.67513 7.88574 0.929688V12.9741ZM0.929688 7.87744C0.67513 7.87744 0.456543 7.7889 0.273926 7.61182C0.0913086 7.4292 0 7.20785 0 6.94775C0 6.6932 0.0913086 6.47461 0.273926 6.29199C0.456543 6.10384 0.67513 6.00977 0.929688 6.00977H12.9658C13.2204 6.00977 13.439 6.10384 13.6216 6.29199C13.8042 6.47461 13.8955 6.6932 13.8955 6.94775C13.8955 7.20785 13.8042 7.4292 13.6216 7.61182C13.439 7.7889 13.2204 7.87744 12.9658 7.87744H0.929688Z" fill="#2A2A2A" style="fill:#2A2A2A;fill:color(display-p3 0.1647 0.1647 0.1647);fill-opacity:1;"/>
</svg>
