<svg width="11" height="11" viewBox="0 0 11 11" fill="none" xmlns="http://www.w3.org/2000/svg">
<path d="M9.03906 0.222168C9.13216 0.129069 9.23796 0.0698242 9.35645 0.0444336C9.47917 0.0148112 9.59977 0.0148112 9.71826 0.0444336C9.84098 0.074056 9.95101 0.135417 10.0483 0.228516C10.1372 0.317383 10.1965 0.423177 10.2261 0.545898C10.2599 0.66862 10.2599 0.791341 10.2261 0.914062C10.1965 1.03255 10.1372 1.13835 10.0483 1.23145L1.23779 10.042C1.14893 10.1309 1.04313 10.1901 0.92041 10.2197C0.801921 10.2493 0.681315 10.2493 0.558594 10.2197C0.435872 10.1901 0.325846 10.1287 0.228516 10.0356C0.135417 9.94678 0.074056 9.84098 0.0444336 9.71826C0.0148112 9.59554 0.0148112 9.47282 0.0444336 9.3501C0.0782878 9.22738 0.139648 9.1237 0.228516 9.03906L9.03906 0.222168ZM10.0483 9.03271C10.1372 9.12581 10.1965 9.23372 10.2261 9.35645C10.2557 9.47493 10.2557 9.59554 10.2261 9.71826C10.1965 9.84098 10.1372 9.94678 10.0483 10.0356C9.95524 10.1287 9.84733 10.1901 9.72461 10.2197C9.60189 10.2493 9.47917 10.2493 9.35645 10.2197C9.23372 10.1901 9.12793 10.1309 9.03906 10.042L0.228516 1.2251C0.139648 1.14046 0.0804036 1.03678 0.0507812 0.914062C0.0211589 0.791341 0.0211589 0.66862 0.0507812 0.545898C0.0804036 0.423177 0.139648 0.317383 0.228516 0.228516C0.321615 0.135417 0.429525 0.074056 0.552246 0.0444336C0.674967 0.0148112 0.797689 0.0148112 0.92041 0.0444336C1.04313 0.074056 1.14893 0.133301 1.23779 0.222168L10.0483 9.03271Z" fill="#9A9A9A" style="fill:#9A9A9A;fill:color(display-p3 0.6039 0.6039 0.6039);fill-opacity:1;"/>
</svg>
