<svg width="55" height="64" viewBox="0 0 55 64" fill="none" xmlns="http://www.w3.org/2000/svg">
<path d="M14.2461 13.6445L5.33203 4.73047C4.80339 4.20182 4.53906 3.55469 4.53906 2.78906C4.53906 2.00521 4.80339 1.34896 5.33203 0.820312C5.87891 0.273438 6.53516 0.00911458 7.30078 0.0273438C8.06641 0.0273438 8.71354 0.291667 9.24219 0.820312L18.1836 9.73438L14.2461 13.6445ZM50.5039 45.3633C47.8424 48.0977 44.6979 50.2578 41.0703 51.8438C37.4427 53.4297 33.5417 54.2227 29.3672 54.2227C25.2656 54.2227 21.4375 53.4661 17.8828 51.9531C14.3464 50.4583 11.2383 48.3711 8.55859 45.6914C5.87891 42.9935 3.78255 39.8672 2.26953 36.3125C0.75651 32.7578 0 28.9388 0 24.8555C0 20.7174 0.77474 16.8438 2.32422 13.2344C3.89193 9.625 6.03385 6.4987 8.75 3.85547L12.7695 7.62891C10.5091 9.81641 8.73177 12.3776 7.4375 15.3125C6.16146 18.2292 5.52344 21.4102 5.52344 24.8555C5.52344 28.1914 6.13411 31.3086 7.35547 34.207C8.57682 37.0872 10.263 39.612 12.4141 41.7812C14.5833 43.9505 17.1081 45.6458 19.9883 46.8672C22.8867 48.0703 26.013 48.6719 29.3672 48.6719C32.7943 48.6719 35.9844 48.0339 38.9375 46.7578C41.8906 45.4635 44.4518 43.6771 46.6211 41.3984L50.5039 45.3633ZM44.1875 35.7656L54.1133 45.6914C54.6602 46.2383 54.9336 46.8945 54.9336 47.6602C54.9336 48.4258 54.6602 49.0729 54.1133 49.6016C53.5846 50.1484 52.9375 50.4219 52.1719 50.4219C51.4062 50.4036 50.7591 50.1302 50.2305 49.6016L40.1133 39.5117L44.1875 35.7656ZM26.5781 52.4727H32.1289V60.6758H26.5781V52.4727ZM19.2773 63.6562C18.5299 63.6562 17.8828 63.3828 17.3359 62.8359C16.7891 62.3073 16.5156 61.6602 16.5156 60.8945C16.5156 60.1471 16.7891 59.5 17.3359 58.9531C17.8828 58.4062 18.5299 58.1328 19.2773 58.1328H39.4844C40.25 58.1328 40.8971 58.4062 41.4258 58.9531C41.9727 59.5 42.2461 60.1471 42.2461 60.8945C42.2461 61.6602 41.9727 62.3073 41.4258 62.8359C40.8971 63.3828 40.25 63.6562 39.4844 63.6562H19.2773ZM29.3672 45.1992C26.5599 45.1992 23.9258 44.6706 21.4648 43.6133C19.0039 42.556 16.8438 41.0977 14.9844 39.2383C13.125 37.3789 11.6667 35.2188 10.6094 32.7578C9.55208 30.2786 9.02344 27.6445 9.02344 24.8555C9.02344 22.0482 9.55208 19.4141 10.6094 16.9531C11.6667 14.4922 13.125 12.332 14.9844 10.4727C16.8438 8.59505 19.0039 7.13672 21.4648 6.09766C23.9258 5.04036 26.5599 4.51172 29.3672 4.51172C32.1745 4.51172 34.8086 5.04036 37.2695 6.09766C39.7305 7.13672 41.8906 8.59505 43.75 10.4727C45.6094 12.332 47.0677 14.4922 48.125 16.9531C49.1823 19.4141 49.7109 22.0482 49.7109 24.8555C49.7109 27.6445 49.1823 30.2786 48.125 32.7578C47.0677 35.2188 45.6094 37.3789 43.75 39.2383C41.8906 41.0977 39.7305 42.556 37.2695 43.6133C34.8086 44.6706 32.1745 45.1992 29.3672 45.1992Z" fill="#7D6945" style="fill:#7D6945;fill:color(display-p3 0.4902 0.4118 0.2706);fill-opacity:1;"/>
</svg>
