<svg width="42" height="40" viewBox="0 0 42 40" fill="none" xmlns="http://www.w3.org/2000/svg">
<path d="M3.58594 12.9375C3 12.9375 2.54297 12.7617 2.21484 12.4102C1.88672 12.0469 1.72266 11.6484 1.72266 11.2148C1.72266 10.5469 2.09766 10.002 2.84766 9.58008L18.2812 0.667969C19.043 0.222656 19.8281 0 20.6367 0C21.4336 0 22.2188 0.222656 22.9922 0.667969L38.4258 9.58008C39.1758 10.0137 39.5508 10.5586 39.5508 11.2148C39.5508 11.6484 39.3867 12.0469 39.0586 12.4102C38.7305 12.7617 38.2793 12.9375 37.7051 12.9375H3.58594ZM4.5 17.0156C4.11328 17.0156 3.80859 16.9102 3.58594 16.6992C3.36328 16.4883 3.25195 16.1836 3.25195 15.7852V15.5391C3.25195 15.1406 3.36328 14.8301 3.58594 14.6074C3.80859 14.3848 4.11328 14.2734 4.5 14.2734H9.35156C9.73828 14.2734 10.043 14.3848 10.2656 14.6074C10.4883 14.8301 10.5996 15.1406 10.5996 15.5391V15.7852C10.5996 16.1836 10.4883 16.4883 10.2656 16.6992C10.043 16.9102 9.73828 17.0156 9.35156 17.0156H4.5ZM5.36133 32.748V16.2773H8.49023V32.748H5.36133ZM4.5 34.752C4.11328 34.752 3.80859 34.6406 3.58594 34.418C3.36328 34.1953 3.25195 33.8906 3.25195 33.5039V33.2402C3.25195 32.8535 3.36328 32.5547 3.58594 32.3438C3.80859 32.1211 4.11328 32.0098 4.5 32.0098H9.35156C9.73828 32.0098 10.043 32.1211 10.2656 32.3438C10.4883 32.5547 10.5996 32.8535 10.5996 33.2402V33.5039C10.5996 33.8906 10.4883 34.1953 10.2656 34.418C10.043 34.6406 9.73828 34.752 9.35156 34.752H4.5ZM13.6406 17.0156C13.2539 17.0156 12.9492 16.9102 12.7266 16.6992C12.5156 16.4883 12.4102 16.1836 12.4102 15.7852V15.5391C12.4102 15.1406 12.5156 14.8301 12.7266 14.6074C12.9492 14.3848 13.2539 14.2734 13.6406 14.2734H18.4922C18.8789 14.2734 19.1836 14.3848 19.4062 14.6074C19.6289 14.8301 19.7402 15.1406 19.7402 15.5391V15.7852C19.7402 16.1836 19.6289 16.4883 19.4062 16.6992C19.1836 16.9102 18.8789 17.0156 18.4922 17.0156H13.6406ZM14.502 32.748V16.2773H17.6309V32.748H14.502ZM13.6406 34.752C13.2539 34.752 12.9492 34.6406 12.7266 34.418C12.5156 34.1953 12.4102 33.8906 12.4102 33.5039V33.2402C12.4102 32.8535 12.5156 32.5547 12.7266 32.3438C12.9492 32.1211 13.2539 32.0098 13.6406 32.0098H18.4922C18.8789 32.0098 19.1836 32.1211 19.4062 32.3438C19.6289 32.5547 19.7402 32.8535 19.7402 33.2402V33.5039C19.7402 33.8906 19.6289 34.1953 19.4062 34.418C19.1836 34.6406 18.8789 34.752 18.4922 34.752H13.6406ZM22.7812 17.0156C22.3945 17.0156 22.0898 16.9102 21.8672 16.6992C21.6445 16.4883 21.5332 16.1836 21.5332 15.7852V15.5391C21.5332 15.1406 21.6445 14.8301 21.8672 14.6074C22.0898 14.3848 22.3945 14.2734 22.7812 14.2734H27.6152C28.0137 14.2734 28.3242 14.3848 28.5469 14.6074C28.7695 14.8301 28.8809 15.1406 28.8809 15.5391V15.7852C28.8809 16.1836 28.7695 16.4883 28.5469 16.6992C28.3242 16.9102 28.0137 17.0156 27.6152 17.0156H22.7812ZM23.6426 32.748V16.2773H26.7715V32.748H23.6426ZM22.7812 34.752C21.9492 34.752 21.5332 34.3359 21.5332 33.5039V33.2402C21.5332 32.8535 21.6445 32.5547 21.8672 32.3438C22.0898 32.1211 22.3945 32.0098 22.7812 32.0098H27.6152C28.0137 32.0098 28.3242 32.1211 28.5469 32.3438C28.7695 32.5547 28.8809 32.8535 28.8809 33.2402V33.5039C28.8809 33.8906 28.7695 34.1953 28.5469 34.418C28.3242 34.6406 28.0137 34.752 27.6152 34.752H22.7812ZM31.9219 17.0156C31.5352 17.0156 31.2305 16.9102 31.0078 16.6992C30.7852 16.4883 30.6738 16.1836 30.6738 15.7852V15.5391C30.6738 15.1406 30.7793 14.8301 30.9902 14.6074C31.2129 14.3848 31.5234 14.2734 31.9219 14.2734H36.7559C37.1543 14.2734 37.459 14.3848 37.6699 14.6074C37.8926 14.8301 38.0039 15.1406 38.0039 15.5391V15.7852C38.0039 16.1836 37.8926 16.4883 37.6699 16.6992C37.459 16.9102 37.1543 17.0156 36.7559 17.0156H31.9219ZM32.7832 32.748V16.2773H35.9121V32.748H32.7832ZM31.9219 34.752C31.0898 34.752 30.6738 34.3359 30.6738 33.5039V33.2402C30.6738 32.8535 30.7852 32.5547 31.0078 32.3438C31.2305 32.1211 31.5352 32.0098 31.9219 32.0098H36.7559C37.1543 32.0098 37.459 32.1211 37.6699 32.3438C37.8926 32.5547 38.0039 32.8535 38.0039 33.2402V33.5039C38.0039 33.8906 37.8926 34.1953 37.6699 34.418C37.459 34.6406 37.1543 34.752 36.7559 34.752H31.9219ZM1.72266 39.5508C1.25391 39.5508 0.849609 39.3809 0.509766 39.041C0.169922 38.7012 0 38.2969 0 37.8281C0 37.3477 0.169922 36.9375 0.509766 36.5977C0.849609 36.2578 1.25391 36.0879 1.72266 36.0879H39.3574C39.8262 36.0879 40.2305 36.2578 40.5703 36.5977C40.9219 36.9375 41.0977 37.3477 41.0977 37.8281C41.0977 38.2969 40.9219 38.7012 40.5703 39.041C40.2305 39.3809 39.8262 39.5508 39.3574 39.5508H1.72266Z" fill="white" style="fill:white;fill-opacity:1;"/>
</svg>
