<svg width="20" height="19" viewBox="0 0 20 19" fill="none" xmlns="http://www.w3.org/2000/svg">
<path d="M1.58545 5.94336C1.33089 5.94336 1.13167 5.86589 0.987793 5.71094C0.843913 5.55046 0.771973 5.37614 0.771973 5.18799C0.771973 4.89469 0.937988 4.65397 1.27002 4.46582L8.4751 0.307129C8.8182 0.102376 9.17236 0 9.5376 0C9.90283 0 10.2625 0.102376 10.6167 0.307129L17.8218 4.46582C18.1483 4.65397 18.3115 4.89469 18.3115 5.18799C18.3115 5.37614 18.2396 5.55046 18.0957 5.71094C17.9574 5.86589 17.7609 5.94336 17.5063 5.94336H1.58545ZM2.02539 7.77783C1.85384 7.77783 1.72103 7.73079 1.62695 7.63672C1.53288 7.54264 1.48584 7.40983 1.48584 7.23828V7.12207C1.48584 6.95052 1.53288 6.81771 1.62695 6.72363C1.72103 6.62402 1.85384 6.57422 2.02539 6.57422H4.2832C4.46029 6.57422 4.59587 6.62402 4.68994 6.72363C4.78402 6.81771 4.83105 6.95052 4.83105 7.12207V7.23828C4.83105 7.40983 4.78125 7.54264 4.68164 7.63672C4.58757 7.73079 4.45475 7.77783 4.2832 7.77783H2.02539ZM2.46533 15.2236V7.479H3.85156V15.2236H2.46533ZM2.02539 16.1284C1.85384 16.1284 1.72103 16.0814 1.62695 15.9873C1.53288 15.8932 1.48584 15.7576 1.48584 15.5806V15.4644C1.48584 15.2928 1.53288 15.16 1.62695 15.0659C1.72103 14.9718 1.85384 14.9248 2.02539 14.9248H4.2832C4.45475 14.9248 4.58757 14.9718 4.68164 15.0659C4.78125 15.16 4.83105 15.2928 4.83105 15.4644V15.5806C4.83105 15.7576 4.78402 15.8932 4.68994 15.9873C4.59587 16.0814 4.46029 16.1284 4.2832 16.1284H2.02539ZM6.29199 7.77783C6.12044 7.77783 5.98486 7.73079 5.88525 7.63672C5.79118 7.54264 5.74414 7.40983 5.74414 7.23828V7.12207C5.74414 6.95052 5.79118 6.81771 5.88525 6.72363C5.98486 6.62402 6.12044 6.57422 6.29199 6.57422H8.5415C8.71305 6.57422 8.84587 6.62402 8.93994 6.72363C9.03955 6.81771 9.08936 6.95052 9.08936 7.12207V7.23828C9.08936 7.40983 9.03955 7.54264 8.93994 7.63672C8.84587 7.73079 8.71305 7.77783 8.5415 7.77783H6.29199ZM6.72363 15.2236V7.479H8.10156V15.2236H6.72363ZM6.29199 16.1284C6.12044 16.1284 5.98486 16.0814 5.88525 15.9873C5.79118 15.8932 5.74414 15.7576 5.74414 15.5806V15.4644C5.74414 15.2928 5.79118 15.16 5.88525 15.0659C5.98486 14.9718 6.12044 14.9248 6.29199 14.9248H8.5415C8.71305 14.9248 8.84587 14.9718 8.93994 15.0659C9.03955 15.16 9.08936 15.2928 9.08936 15.4644V15.5806C9.08936 15.7576 9.03955 15.8932 8.93994 15.9873C8.84587 16.0814 8.71305 16.1284 8.5415 16.1284H6.29199ZM10.5503 7.77783C10.3732 7.77783 10.2376 7.73079 10.1436 7.63672C10.0495 7.54264 10.0024 7.40983 10.0024 7.23828V7.12207C10.0024 6.95052 10.0495 6.81771 10.1436 6.72363C10.2376 6.62402 10.3732 6.57422 10.5503 6.57422H12.7998C12.9714 6.57422 13.1042 6.62402 13.1982 6.72363C13.2979 6.81771 13.3477 6.95052 13.3477 7.12207V7.23828C13.3477 7.40983 13.2979 7.54264 13.1982 7.63672C13.1042 7.73079 12.9714 7.77783 12.7998 7.77783H10.5503ZM10.9819 15.2236V7.479H12.3682V15.2236H10.9819ZM10.5503 16.1284C10.1851 16.1284 10.0024 15.9458 10.0024 15.5806V15.4644C10.0024 15.2928 10.0495 15.16 10.1436 15.0659C10.2376 14.9718 10.3732 14.9248 10.5503 14.9248H12.7998C12.9714 14.9248 13.1042 14.9718 13.1982 15.0659C13.2979 15.16 13.3477 15.2928 13.3477 15.4644V15.5806C13.3477 15.7576 13.2979 15.8932 13.1982 15.9873C13.1042 16.0814 12.9714 16.1284 12.7998 16.1284H10.5503ZM14.8003 7.77783C14.6287 7.77783 14.4932 7.73079 14.3936 7.63672C14.2995 7.54264 14.2524 7.40983 14.2524 7.23828V7.12207C14.2524 6.95052 14.2995 6.81771 14.3936 6.72363C14.4932 6.62402 14.6287 6.57422 14.8003 6.57422H17.0581C17.2297 6.57422 17.3625 6.62402 17.4565 6.72363C17.5562 6.81771 17.606 6.95052 17.606 7.12207V7.23828C17.606 7.40983 17.5562 7.54264 17.4565 7.63672C17.3625 7.73079 17.2297 7.77783 17.0581 7.77783H14.8003ZM15.2485 15.2236V7.479H16.6265V15.2236H15.2485ZM14.8003 16.1284C14.4351 16.1284 14.2524 15.9458 14.2524 15.5806V15.4644C14.2524 15.2928 14.2995 15.16 14.3936 15.0659C14.4932 14.9718 14.6287 14.9248 14.8003 14.9248H17.0581C17.2297 14.9248 17.3625 14.9718 17.4565 15.0659C17.5562 15.16 17.606 15.2928 17.606 15.4644V15.5806C17.606 15.7576 17.5562 15.8932 17.4565 15.9873C17.3625 16.0814 17.2297 16.1284 17.0581 16.1284H14.8003ZM0.74707 18.2783C0.542318 18.2783 0.365234 18.2036 0.21582 18.0542C0.0719401 17.9048 0 17.7249 0 17.5146C0 17.3099 0.0719401 17.1328 0.21582 16.9834C0.365234 16.8395 0.542318 16.7676 0.74707 16.7676H18.2783C18.4831 16.7676 18.6602 16.8395 18.8096 16.9834C18.9645 17.1328 19.042 17.3099 19.042 17.5146C19.042 17.7249 18.9645 17.9048 18.8096 18.0542C18.6602 18.2036 18.4831 18.2783 18.2783 18.2783H0.74707Z" fill="#2A2A2A" style="fill:#2A2A2A;fill:color(display-p3 0.1647 0.1647 0.1647);fill-opacity:1;"/>
</svg>
