<svg width="17" height="17" viewBox="0 0 17 17" fill="none" xmlns="http://www.w3.org/2000/svg">
<path d="M0 6.75684C0 5.82715 0.174316 4.95557 0.522949 4.14209C0.877116 3.32308 1.3641 2.60368 1.98389 1.98389C2.60368 1.35856 3.32031 0.871582 4.13379 0.522949C4.9528 0.174316 5.82715 0 6.75684 0C7.69206 0 8.56641 0.174316 9.37988 0.522949C10.1989 0.871582 10.9183 1.35856 11.5381 1.98389C12.1579 2.60368 12.6421 3.32308 12.9907 4.14209C13.3449 4.95557 13.522 5.82715 13.522 6.75684C13.522 7.4873 13.4085 8.1818 13.1816 8.84033C12.9603 9.49886 12.6532 10.0993 12.2603 10.6416L16.0454 14.4434C16.1616 14.554 16.2474 14.6841 16.3027 14.8335C16.3636 14.9829 16.394 15.1406 16.394 15.3066C16.394 15.5391 16.3415 15.7493 16.2363 15.9375C16.1312 16.1257 15.9873 16.2723 15.8047 16.3774C15.6221 16.4881 15.4118 16.5435 15.1738 16.5435C15.0078 16.5435 14.8473 16.513 14.6924 16.4521C14.543 16.3968 14.4074 16.3083 14.2856 16.1865L10.4756 12.3765C9.94434 12.7306 9.36328 13.0101 8.73242 13.2148C8.1071 13.4141 7.44857 13.5137 6.75684 13.5137C5.82715 13.5137 4.9528 13.3394 4.13379 12.9907C3.32031 12.6421 2.60368 12.1579 1.98389 11.5381C1.3641 10.9183 0.877116 10.2017 0.522949 9.38818C0.174316 8.56917 0 7.69206 0 6.75684ZM1.73486 6.75684C1.73486 7.4541 1.86214 8.1071 2.1167 8.71582C2.37679 9.31901 2.73649 9.85026 3.1958 10.3096C3.66064 10.7689 4.19743 11.1313 4.80615 11.397C5.41488 11.6571 6.0651 11.7871 6.75684 11.7871C7.4541 11.7871 8.10433 11.6571 8.70752 11.397C9.31624 11.1313 9.85026 10.7689 10.3096 10.3096C10.7689 9.85026 11.1286 9.31901 11.3887 8.71582C11.6543 8.1071 11.7871 7.4541 11.7871 6.75684C11.7871 6.0651 11.6543 5.41488 11.3887 4.80615C11.1286 4.19743 10.7689 3.66341 10.3096 3.2041C9.85026 2.73926 9.31624 2.37956 8.70752 2.125C8.10433 1.86491 7.4541 1.73486 6.75684 1.73486C6.0651 1.73486 5.41488 1.86491 4.80615 2.125C4.19743 2.37956 3.66064 2.73926 3.1958 3.2041C2.73649 3.66341 2.37679 4.19743 2.1167 4.80615C1.86214 5.41488 1.73486 6.0651 1.73486 6.75684Z" fill="#2A2A2A" style="fill:#2A2A2A;fill:color(display-p3 0.1647 0.1647 0.1647);fill-opacity:1;"/>
</svg>
