<svg width="59" height="59" viewBox="0 0 59 59" fill="none" xmlns="http://www.w3.org/2000/svg">
<path d="M26.9062 58.7891C26.0312 58.7891 25.2839 58.543 24.6641 58.0508C24.0443 57.5586 23.625 56.875 23.4062 56L22.0664 50.3398C21.6471 50.194 21.2279 50.0391 20.8086 49.875C20.4076 49.7109 20.0247 49.5469 19.6602 49.3828L14.7383 52.418C14.0091 52.8737 13.2435 53.0651 12.4414 52.9922C11.6393 52.9193 10.9284 52.5729 10.3086 51.9531L6.80859 48.4805C6.20703 47.8607 5.86979 47.1406 5.79688 46.3203C5.72396 45.4818 5.92448 44.6979 6.39844 43.9688L9.37891 39.0742C9.21484 38.6914 9.05078 38.3086 8.88672 37.9258C8.74089 37.543 8.60417 37.151 8.47656 36.75L2.78906 35.4102C1.91406 35.2096 1.23047 34.7995 0.738281 34.1797C0.246094 33.5599 0 32.8034 0 31.9102V27.0156C0 26.1589 0.246094 25.4206 0.738281 24.8008C1.23047 24.1628 1.91406 23.7435 2.78906 23.543L8.42188 22.2031C8.54948 21.7474 8.69531 21.3281 8.85938 20.9453C9.04167 20.5625 9.20573 20.1979 9.35156 19.8516L6.34375 14.8477C5.86979 14.082 5.66016 13.3073 5.71484 12.5234C5.78776 11.7214 6.14323 11.0195 6.78125 10.418L10.3086 6.91797C10.9284 6.31641 11.612 5.97005 12.3594 5.87891C13.125 5.78776 13.8815 5.95182 14.6289 6.37109L19.6328 9.48828C19.9974 9.30599 20.3893 9.13281 20.8086 8.96875C21.2279 8.78646 21.6471 8.6224 22.0664 8.47656L23.4062 2.78906C23.625 1.93229 24.0443 1.25781 24.6641 0.765625C25.2839 0.255208 26.0312 0 26.9062 0H31.9102C32.7852 0 33.5326 0.255208 34.1523 0.765625C34.7721 1.25781 35.1823 1.93229 35.3828 2.78906L36.75 8.53125C37.1875 8.67708 37.6068 8.83203 38.0078 8.99609C38.4089 9.16016 38.7826 9.33333 39.1289 9.51562L44.2148 6.37109C44.9258 5.95182 45.6549 5.79688 46.4023 5.90625C47.168 6.01562 47.8607 6.34375 48.4805 6.89062L52.0352 10.418C52.6732 11.0195 53.0195 11.7214 53.0742 12.5234C53.1471 13.3073 52.9557 14.082 52.5 14.8477L49.4648 19.8516C49.6107 20.1979 49.7656 20.5625 49.9297 20.9453C50.0938 21.3281 50.2487 21.7474 50.3945 22.2031L56.0547 23.543C56.9115 23.7435 57.5859 24.1628 58.0781 24.8008C58.5703 25.4206 58.8164 26.1589 58.8164 27.0156V31.9102C58.8164 32.8034 58.5703 33.5599 58.0781 34.1797C57.5859 34.7995 56.9115 35.2096 56.0547 35.4102L50.3398 36.75C50.2122 37.151 50.0664 37.543 49.9023 37.9258C49.7565 38.3086 49.5924 38.6914 49.4102 39.0742L52.418 43.9688C52.9102 44.6979 53.1198 45.4818 53.0469 46.3203C52.974 47.1406 52.6276 47.8607 52.0078 48.4805L48.5078 51.9531C47.888 52.5729 47.1771 52.9193 46.375 52.9922C45.5729 53.0651 44.8073 52.8737 44.0781 52.418L39.1289 49.3828C38.7643 49.5469 38.3815 49.7109 37.9805 49.875C37.5794 50.0391 37.1693 50.194 36.75 50.3398L35.3828 56C35.1823 56.875 34.7721 57.5586 34.1523 58.0508C33.5326 58.543 32.7852 58.7891 31.9102 58.7891H26.9062ZM29.4219 38.9102C31.1536 38.9102 32.7396 38.4818 34.1797 37.625C35.6198 36.7682 36.7682 35.6198 37.625 34.1797C38.4818 32.7396 38.9102 31.1445 38.9102 29.3945C38.9102 27.6445 38.4818 26.0495 37.625 24.6094C36.7682 23.1693 35.6198 22.0208 34.1797 21.1641C32.7396 20.3073 31.1536 19.8789 29.4219 19.8789C27.6536 19.8789 26.0495 20.3073 24.6094 21.1641C23.1875 22.0208 22.0482 23.1693 21.1914 24.6094C20.3346 26.0495 19.9062 27.6445 19.9062 29.3945C19.9062 31.1445 20.3346 32.7396 21.1914 34.1797C22.0482 35.6198 23.1875 36.7682 24.6094 37.625C26.0495 38.4818 27.6536 38.9102 29.4219 38.9102Z" fill="#7D6945" style="fill:#7D6945;fill:color(display-p3 0.4902 0.4118 0.2706);fill-opacity:1;"/>
</svg>
