<svg width="20" height="16" viewBox="0 0 20 16" fill="none" xmlns="http://www.w3.org/2000/svg">
<path d="M6.59912 14.1362V1.36133H8.15137V14.1362H6.59912ZM3.57764 15.4976C2.4432 15.4976 1.56331 15.1849 0.937988 14.5596C0.312663 13.9342 0 13.0544 0 11.9199V3.58594C0 2.4515 0.312663 1.57161 0.937988 0.946289C1.56331 0.31543 2.4432 0 3.57764 0H16.2529C17.332 0 18.1704 0.31543 18.7681 0.946289C19.3657 1.57161 19.6646 2.4515 19.6646 3.58594V11.9199C19.6646 13.0544 19.3657 13.9342 18.7681 14.5596C18.1704 15.1849 17.332 15.4976 16.2529 15.4976H3.57764ZM3.66895 13.8706H15.9956C16.6375 13.8706 17.1356 13.6935 17.4897 13.3394C17.8494 12.9797 18.0293 12.4788 18.0293 11.8369V3.66895C18.0293 3.02702 17.8494 2.52897 17.4897 2.1748C17.1356 1.8151 16.6375 1.63525 15.9956 1.63525H3.66895C3.02148 1.63525 2.52067 1.8151 2.1665 2.1748C1.81234 2.52897 1.63525 3.02702 1.63525 3.66895V11.8369C1.63525 12.4788 1.81234 12.9797 2.1665 13.3394C2.52067 13.6935 3.02148 13.8706 3.66895 13.8706ZM4.97217 4.68164H3.27051C3.12663 4.68164 2.99935 4.6263 2.88867 4.51562C2.78353 4.40495 2.73096 4.2832 2.73096 4.15039C2.73096 4.00651 2.78353 3.882 2.88867 3.77686C2.99935 3.67171 3.12663 3.61914 3.27051 3.61914H4.97217C5.12158 3.61914 5.24886 3.67171 5.354 3.77686C5.46468 3.882 5.52002 4.00651 5.52002 4.15039C5.52002 4.2832 5.46468 4.40495 5.354 4.51562C5.24886 4.6263 5.12158 4.68164 4.97217 4.68164ZM4.97217 6.90625H3.27051C3.12663 6.90625 2.99935 6.85368 2.88867 6.74854C2.78353 6.63786 2.73096 6.51058 2.73096 6.3667C2.73096 6.22835 2.78353 6.10661 2.88867 6.00146C2.99935 5.89632 3.12663 5.84375 3.27051 5.84375H4.97217C5.12158 5.84375 5.24886 5.89632 5.354 6.00146C5.46468 6.10661 5.52002 6.22835 5.52002 6.3667C5.52002 6.51058 5.46468 6.63786 5.354 6.74854C5.24886 6.85368 5.12158 6.90625 4.97217 6.90625ZM4.97217 9.12256H3.27051C3.12663 9.12256 2.99935 9.06999 2.88867 8.96484C2.78353 8.8597 2.73096 8.73796 2.73096 8.59961C2.73096 8.45573 2.78353 8.33122 2.88867 8.22607C2.99935 8.12093 3.12663 8.06836 3.27051 8.06836H4.97217C5.12158 8.06836 5.24886 8.12093 5.354 8.22607C5.46468 8.33122 5.52002 8.45573 5.52002 8.59961C5.52002 8.73796 5.46468 8.8597 5.354 8.96484C5.24886 9.06999 5.12158 9.12256 4.97217 9.12256Z" fill="#2A2A2A" style="fill:#2A2A2A;fill:color(display-p3 0.1647 0.1647 0.1647);fill-opacity:1;"/>
</svg>
