<svg width="84" height="61" viewBox="0 0 84 61" fill="none" xmlns="http://www.w3.org/2000/svg">
<path d="M27.6445 60.9766C24.9466 60.9766 22.9232 60.2292 21.5742 58.7344C20.2253 57.2396 19.5508 55.2891 19.5508 52.8828C19.5508 50.75 20.0885 48.4349 21.1641 45.9375C22.2578 43.4583 23.7891 40.9974 25.7578 38.5547C27.7448 36.112 30.1055 33.888 32.8398 31.8828C35.5742 29.8776 38.6003 28.2643 41.918 27.043C45.2357 25.8216 48.763 25.2109 52.5 25.2109C54.3594 25.2109 55.8359 25.6484 56.9297 26.5234C58.0234 27.3984 58.5703 28.5742 58.5703 30.0508C58.5703 30.6888 58.4883 31.3086 58.3242 31.9102C58.1602 32.5117 57.987 33.0677 57.8047 33.5781C57.6406 34.0703 57.5586 34.4622 57.5586 34.7539C57.5586 35.0456 57.6953 35.1914 57.9688 35.1914C58.3151 35.1914 58.862 34.8997 59.6094 34.3164C60.3568 33.7148 61.2135 32.9766 62.1797 32.1016C63.1641 31.2083 64.2122 30.3242 65.3242 29.4492C66.4362 28.5742 67.5482 27.8359 68.6602 27.2344C69.7721 26.6328 70.8112 26.332 71.7773 26.332C72.9258 26.332 73.7734 26.6419 74.3203 27.2617C74.8854 27.8633 75.2773 28.6107 75.4961 29.5039C75.7148 30.3971 75.8789 31.2904 75.9883 32.1836C76.0977 33.0768 76.2526 33.8242 76.4531 34.4258C76.6536 35.0273 77.0273 35.3281 77.5742 35.3281C77.9935 35.3281 78.4036 35.2096 78.8047 34.9727C79.224 34.7174 79.6706 34.5898 80.1445 34.5898C80.7643 34.5898 81.2565 34.8177 81.6211 35.2734C82.0039 35.7109 82.1953 36.2305 82.1953 36.832C82.1953 37.306 82.0768 37.7253 81.8398 38.0898C81.6029 38.4544 81.3021 38.7643 80.9375 39.0195C80.3542 39.4023 79.707 39.6849 78.9961 39.8672C78.2852 40.0312 77.6289 40.1133 77.0273 40.1133C75.6419 40.1133 74.5755 39.8307 73.8281 39.2656C73.099 38.7005 72.5703 38.0078 72.2422 37.1875C71.9323 36.349 71.7044 35.5195 71.5586 34.6992C71.431 33.8607 71.3034 33.1589 71.1758 32.5938C71.0482 32.0286 70.8021 31.7461 70.4375 31.7461C70 31.7461 69.4076 32.0651 68.6602 32.7031C67.9128 33.3229 67.0378 34.0977 66.0352 35.0273C65.0508 35.957 63.9844 36.8958 62.8359 37.8438C61.6875 38.7734 60.5208 39.5573 59.3359 40.1953C58.151 40.8151 56.9935 41.125 55.8633 41.125C54.7695 41.125 53.8581 40.806 53.1289 40.168C52.3997 39.5299 52.0352 38.6549 52.0352 37.543C52.0352 36.7227 52.1445 35.957 52.3633 35.2461C52.582 34.5352 52.8008 33.8424 53.0195 33.168C53.2565 32.4753 53.375 31.7461 53.375 30.9805C53.375 30.3242 52.9284 29.9961 52.0352 29.9961C48.918 29.9961 45.9648 30.5156 43.1758 31.5547C40.3867 32.5755 37.8529 33.9336 35.5742 35.6289C33.3138 37.306 31.3542 39.138 29.6953 41.125C28.0365 43.0938 26.7513 45.0443 25.8398 46.9766C24.9466 48.9089 24.5 50.6315 24.5 52.1445C24.5 53.3477 24.8008 54.3229 25.4023 55.0703C26.0221 55.8177 26.9609 56.1914 28.2188 56.1914C30.1693 56.1914 31.974 55.4714 33.6328 54.0312C35.3099 52.5911 36.7682 50.5951 38.0078 48.043C39.2474 45.4909 40.2044 42.5286 40.8789 39.1562C41.5716 35.7839 41.918 32.1654 41.918 28.3008C41.918 25.0378 41.599 21.9935 40.9609 19.168C40.3411 16.3242 39.4297 13.8268 38.2266 11.6758C37.0417 9.52474 35.6198 7.84766 33.9609 6.64453C32.3021 5.42318 30.4609 4.8125 28.4375 4.8125C26.888 4.8125 25.5026 5.21354 24.2812 6.01562C23.0781 6.81771 22.1302 7.90234 21.4375 9.26953C20.7448 10.6367 20.3984 12.1862 20.3984 13.918C20.3984 16.6523 20.9453 19.1771 22.0391 21.4922C23.1328 23.7891 24.5365 25.8581 26.25 27.6992C27.9635 29.5221 29.75 31.099 31.6094 32.4297C33.4688 33.7422 35.1458 34.7904 36.6406 35.5742C37.0964 35.8294 37.4245 36.1302 37.625 36.4766C37.8255 36.8229 37.9258 37.1875 37.9258 37.5703C37.9258 38.1354 37.707 38.6276 37.2695 39.0469C36.8503 39.4661 36.3307 39.6758 35.7109 39.6758C35.2734 39.6758 34.8633 39.5755 34.4805 39.375C32.6576 38.5 30.8346 37.4336 29.0117 36.1758C27.207 34.8997 25.4935 33.4688 23.8711 31.8828C22.2669 30.2786 20.8451 28.5378 19.6055 26.6602C18.3659 24.7643 17.3815 22.75 16.6523 20.6172C15.9414 18.4844 15.5859 16.2604 15.5859 13.9453C15.5859 11.3021 16.1419 8.93229 17.2539 6.83594C18.3841 4.73958 19.9154 3.08073 21.8477 1.85938C23.7799 0.619792 25.9766 0 28.4375 0C31.1901 0 33.6875 0.729167 35.9297 2.1875C38.1719 3.64583 40.0951 5.66927 41.6992 8.25781C43.3034 10.8281 44.5339 13.8268 45.3906 17.2539C46.2656 20.681 46.7031 24.3633 46.7031 28.3008C46.7031 32.931 46.2565 37.2331 45.3633 41.207C44.4883 45.1628 43.2122 48.6172 41.5352 51.5703C39.8763 54.5417 37.8711 56.8477 35.5195 58.4883C33.1862 60.1471 30.5612 60.9766 27.6445 60.9766ZM2.37891 50.8047C1.72266 50.8047 1.15755 50.5586 0.683594 50.0664C0.227865 49.5924 0 49.0365 0 48.3984C0 47.7422 0.227865 47.1771 0.683594 46.7031C1.15755 46.2292 1.72266 45.9922 2.37891 45.9922H80.9375C81.5938 45.9922 82.1589 46.2292 82.6328 46.7031C83.1068 47.1771 83.3438 47.7422 83.3438 48.3984C83.3438 49.0365 83.1068 49.5924 82.6328 50.0664C82.1589 50.5586 81.5938 50.8047 80.9375 50.8047H2.37891ZM1.39453 40.2227C0.99349 39.8216 0.792969 39.3659 0.792969 38.8555C0.792969 38.3268 0.99349 37.862 1.39453 37.4609L10.7461 28.1641C11.1289 27.7812 11.5846 27.5898 12.1133 27.5898C12.6419 27.5716 13.0977 27.763 13.4805 28.1641C13.8633 28.5469 14.0547 29.0026 14.0547 29.5312C14.0729 30.0599 13.8815 30.5156 13.4805 30.8984L4.12891 40.2227C3.74609 40.6055 3.29036 40.806 2.76172 40.8242C2.23307 40.8242 1.77734 40.6237 1.39453 40.2227ZM10.7461 40.2227L1.39453 30.8984C0.99349 30.5156 0.792969 30.0599 0.792969 29.5312C0.792969 29.0026 0.99349 28.5469 1.39453 28.1641C1.77734 27.763 2.23307 27.5625 2.76172 27.5625C3.29036 27.5625 3.74609 27.763 4.12891 28.1641L13.4805 37.4609C13.8815 37.8438 14.082 38.2995 14.082 38.8281C14.082 39.3568 13.8815 39.8216 13.4805 40.2227C13.0977 40.6055 12.6419 40.7969 12.1133 40.7969C11.5846 40.7969 11.1289 40.6055 10.7461 40.2227Z" fill="#2A2A2A" style="fill:#2A2A2A;fill:color(display-p3 0.1647 0.1647 0.1647);fill-opacity:1;"/>
</svg>
