<svg width="20" height="18" viewBox="0 0 20 18" fill="none" xmlns="http://www.w3.org/2000/svg">
<path d="M19.1089 3.7793C19.3579 3.8916 19.5483 4.04541 19.6802 4.24072C19.812 4.43604 19.8779 4.64111 19.8779 4.85596C19.8779 5.07568 19.812 5.28076 19.6802 5.47119C19.5483 5.66162 19.3579 5.81543 19.1089 5.93262L11.9458 9.21387C11.5601 9.38477 11.2061 9.51172 10.8838 9.59473C10.5615 9.67773 10.2441 9.7168 9.93164 9.71191C9.62891 9.7168 9.31396 9.68018 8.98682 9.60205C8.66455 9.51904 8.31055 9.38965 7.9248 9.21387L4.74609 7.75635L9.21387 5.67627C9.44336 5.74951 9.69238 5.78613 9.96094 5.78613C10.2393 5.78613 10.5029 5.74707 10.752 5.66895C11.001 5.58594 11.2036 5.47607 11.3599 5.33936C11.5161 5.19775 11.5942 5.03662 11.5942 4.85596C11.5942 4.68018 11.5161 4.52393 11.3599 4.38721C11.2036 4.25049 11.001 4.14307 10.752 4.06494C10.5029 3.98682 10.2393 3.94775 9.96094 3.94775C9.68262 3.94775 9.4165 3.98682 9.1626 4.06494C8.91357 4.14307 8.7085 4.25049 8.54736 4.38721C8.39111 4.52393 8.31299 4.68018 8.31299 4.85596C8.31299 4.90967 8.33008 4.9585 8.36426 5.00244L3.61816 7.21436L0.769043 5.93262C0.515137 5.81543 0.322266 5.66162 0.19043 5.47119C0.0634766 5.28076 0 5.07568 0 4.85596C0 4.64111 0.0634766 4.43604 0.19043 4.24072C0.322266 4.04541 0.515137 3.8916 0.769043 3.7793L7.9248 0.505371C8.30566 0.32959 8.65967 0.202637 8.98682 0.124512C9.31396 0.0415039 9.62891 0.00244141 9.93164 0.00732422C10.2441 0.00244141 10.5615 0.0415039 10.8838 0.124512C11.2061 0.202637 11.5601 0.32959 11.9458 0.505371L19.1089 3.7793ZM4.72412 8.9209L7.47803 10.1807C8.37158 10.5859 9.18945 10.7861 9.93164 10.7812C10.6836 10.7861 11.5039 10.5859 12.3926 10.1807L17.1753 7.99072V10.3125C17.1753 10.8789 16.9995 11.4136 16.6479 11.9165C16.3013 12.4146 15.8081 12.854 15.1685 13.2349C14.5288 13.6157 13.7646 13.9136 12.876 14.1284C11.9922 14.3433 11.0107 14.4507 9.93164 14.4507C8.86719 14.4507 7.89062 14.3408 7.00195 14.1211C6.11816 13.9062 5.35889 13.606 4.72412 13.2202V8.9209ZM2.69531 7.99072L3.64746 8.43018V12.356C3.33984 12.0337 3.10303 11.6919 2.93701 11.3306C2.77588 10.9692 2.69531 10.6299 2.69531 10.3125V7.99072ZM3.64746 14.8022V12.356C3.78906 12.5171 3.9502 12.6685 4.13086 12.8101C4.31641 12.9565 4.51416 13.0933 4.72412 13.2202V14.8096L3.64746 14.8022ZM3.00293 14.9634C3.00293 14.6509 3.0957 14.3994 3.28125 14.209C3.47168 14.0234 3.72314 13.9307 4.03564 13.9307H4.32861C4.64111 13.9307 4.89014 14.0234 5.07568 14.209C5.26611 14.3994 5.36133 14.6509 5.36133 14.9634V16.8604C5.36133 17.1729 5.26611 17.4219 5.07568 17.6074C4.89014 17.7979 4.64111 17.8931 4.32861 17.8931H4.03564C3.72314 17.8931 3.47168 17.7979 3.28125 17.6074C3.0957 17.4219 3.00293 17.1729 3.00293 16.8604V14.9634Z" fill="#2E7693" style="fill:#2E7693;fill:color(display-p3 0.1799 0.4609 0.5760);fill-opacity:1;"/>
</svg>
