<svg width="75" height="68" viewBox="0 0 75 68" fill="none" xmlns="http://www.w3.org/2000/svg">
<path d="M71.7227 14.1094C72.7253 14.5651 73.4909 15.1849 74.0195 15.9688C74.5482 16.7526 74.8125 17.582 74.8125 18.457C74.8125 19.3503 74.5482 20.1797 74.0195 20.9453C73.4909 21.7109 72.7253 22.3216 71.7227 22.7773L45.0352 35C43.5768 35.6745 42.2279 36.1667 40.9883 36.4766C39.7487 36.7682 38.5547 36.9049 37.4062 36.8867C36.2396 36.9049 35.0365 36.7682 33.7969 36.4766C32.5755 36.1667 31.2266 35.6745 29.75 35L17.7734 29.5312L34.5625 21.7656C35.474 22.0391 36.4401 22.1758 37.4609 22.1758C38.5547 22.1758 39.5846 22.0208 40.5508 21.7109C41.5169 21.3828 42.3008 20.9453 42.9023 20.3984C43.5039 19.8333 43.8047 19.1862 43.8047 18.457C43.8047 17.7279 43.5039 17.0898 42.9023 16.543C42.3008 15.9961 41.5169 15.5768 40.5508 15.2852C39.5846 14.9753 38.5547 14.8203 37.4609 14.8203C36.4036 14.8203 35.3828 14.9753 34.3984 15.2852C33.4323 15.5951 32.6393 16.0234 32.0195 16.5703C31.418 17.099 31.1172 17.7279 31.1172 18.457C31.1172 18.6393 31.1628 18.8034 31.2539 18.9492L13.2344 27.3438L3.0625 22.7773C2.07812 22.3398 1.32161 21.7383 0.792969 20.9727C0.264323 20.1888 0 19.3503 0 18.457C0 17.582 0.264323 16.7526 0.792969 15.9688C1.32161 15.1849 2.07812 14.5651 3.0625 14.1094L29.75 1.91406C31.2083 1.25781 32.5573 0.77474 33.7969 0.464844C35.0365 0.154948 36.2396 0.00911458 37.4062 0.0273438C38.5547 0.00911458 39.7487 0.154948 40.9883 0.464844C42.2279 0.77474 43.5768 1.25781 45.0352 1.91406L71.7227 14.1094ZM17.6914 34.0977L28 38.8008C31.4089 40.3503 34.5443 41.1159 37.4062 41.0977C40.2682 41.1159 43.3945 40.3503 46.7852 38.8008L64.8047 30.543V38.6914C64.8047 40.8789 64.1302 42.9206 62.7812 44.8164C61.4505 46.7122 59.5638 48.3711 57.1211 49.793C54.6784 51.2331 51.7799 52.3542 48.4258 53.1562C45.0716 53.9583 41.3984 54.3594 37.4062 54.3594C33.3958 54.3594 29.7135 53.9492 26.3594 53.1289C23.0052 52.3268 20.1159 51.1966 17.6914 49.7383V34.0977ZM10.0078 30.5703L13.3438 32.1016V46.1836C12.25 44.9987 11.4206 43.75 10.8555 42.4375C10.2904 41.125 10.0078 39.8763 10.0078 38.6914V30.5703ZM13.3438 55.3438V46.1836C13.9089 46.8398 14.556 47.4596 15.2852 48.043C16.0326 48.6445 16.8346 49.2096 17.6914 49.7383V55.3438H13.3438ZM10.7734 56.1914C10.7734 54.9701 11.138 53.9857 11.8672 53.2383C12.6146 52.5091 13.599 52.1445 14.8203 52.1445H16.1875C17.4089 52.1445 18.3841 52.5091 19.1133 53.2383C19.8607 53.9857 20.2344 54.9701 20.2344 56.1914V63.2188C20.2344 64.4401 19.8607 65.4154 19.1133 66.1445C18.3841 66.8919 17.4089 67.2656 16.1875 67.2656H14.8203C13.599 67.2656 12.6146 66.8919 11.8672 66.1445C11.138 65.4154 10.7734 64.4401 10.7734 63.2188V56.1914Z" fill="#7D6945" style="fill:#7D6945;fill:color(display-p3 0.4902 0.4118 0.2706);fill-opacity:1;"/>
</svg>
