<svg width="15" height="13" viewBox="0 0 15 13" fill="none" xmlns="http://www.w3.org/2000/svg">
<path d="M3.01025 12.1289L4.45312 10.686H13.8574C14.0527 10.686 14.2212 10.7593 14.3628 10.9058C14.5044 11.0474 14.5752 11.2158 14.5752 11.4111C14.5752 11.6113 14.5044 11.7798 14.3628 11.9165C14.2212 12.0581 14.0527 12.1289 13.8574 12.1289H3.01025ZM2.18994 11.4478L0.41748 12.1289C0.310059 12.168 0.212402 12.1436 0.124512 12.0557C0.0415039 11.9678 0.0195312 11.8677 0.0585938 11.7554L0.776367 10.0342L9.01611 1.80176L10.4224 3.21533L2.18994 11.4478ZM11.1255 2.52686L9.70459 1.11328L10.4956 0.32959C10.6909 0.13916 10.8936 0.0366211 11.1035 0.0219727C11.3135 0.00732422 11.5088 0.0878906 11.6895 0.263672L11.9751 0.556641C12.1558 0.737305 12.2412 0.930176 12.2314 1.13525C12.2217 1.34033 12.1167 1.54297 11.9165 1.74316L11.1255 2.52686Z" fill="#2D9695" style="fill:#2D9695;fill:color(display-p3 0.1765 0.5882 0.5843);fill-opacity:1;"/>
</svg>
