<svg width="57" height="47" viewBox="0 0 57 47" fill="none" xmlns="http://www.w3.org/2000/svg">
<path d="M11.8945 46.6758L17.9922 40.6055H53.1289C53.9674 40.6055 54.6784 40.9062 55.2617 41.5078C55.8633 42.1094 56.1641 42.8203 56.1641 43.6406C56.1641 44.4792 55.8633 45.1901 55.2617 45.7734C54.6784 46.375 53.9674 46.6758 53.1289 46.6758H11.8945ZM8.58594 44.1055L1.75 46.7031C1.3125 46.8854 0.911458 46.7852 0.546875 46.4023C0.182292 46.0378 0.0911458 45.6276 0.273438 45.1719L2.98047 38.5L34.3984 7.08203L40.0039 12.7148L8.58594 44.1055ZM42.7656 9.98047L37.1328 4.34766L40.2227 1.28516C40.9883 0.53776 41.7812 0.136719 42.6016 0.0820312C43.4401 0.0273438 44.2057 0.355469 44.8984 1.06641L46.0742 2.24219C46.7852 2.95312 47.1224 3.71875 47.0859 4.53906C47.0495 5.34115 46.6484 6.13411 45.8828 6.91797L42.7656 9.98047Z" fill="#7D6945" style="fill:#7D6945;fill:color(display-p3 0.4902 0.4118 0.2706);fill-opacity:1;"/>
</svg>
