<svg width="18" height="18" viewBox="0 0 18 18" fill="none" xmlns="http://www.w3.org/2000/svg">
<path d="M4.38281 9.6123C4.19466 9.6123 4.03695 9.54867 3.90967 9.42139C3.78239 9.29411 3.71875 9.13639 3.71875 8.94824C3.71875 8.76009 3.78239 8.60514 3.90967 8.4834C4.03695 8.35612 4.19466 8.29248 4.38281 8.29248H7.91064V3.51123C7.91064 3.32861 7.97428 3.17367 8.10156 3.04639C8.22884 2.91911 8.38379 2.85547 8.56641 2.85547C8.75456 2.85547 8.91227 2.91911 9.03955 3.04639C9.16683 3.17367 9.23047 3.32861 9.23047 3.51123V8.94824C9.23047 9.13639 9.16683 9.29411 9.03955 9.42139C8.91227 9.54867 8.75456 9.6123 8.56641 9.6123H4.38281ZM8.57471 17.1494C7.39046 17.1494 6.28092 16.9253 5.24609 16.4771C4.21126 16.0343 3.30094 15.4201 2.51514 14.6343C1.72933 13.854 1.1123 12.9465 0.664062 11.9116C0.221354 10.8713 0 9.75895 0 8.57471C0 7.39046 0.221354 6.28092 0.664062 5.24609C1.1123 4.20573 1.72933 3.29264 2.51514 2.50684C3.30094 1.72103 4.21126 1.10677 5.24609 0.664062C6.28092 0.221354 7.39046 0 8.57471 0C9.75895 0 10.8685 0.221354 11.9033 0.664062C12.9437 1.10677 13.8568 1.72103 14.6426 2.50684C15.4284 3.29264 16.0426 4.20573 16.4854 5.24609C16.9336 6.28092 17.1577 7.39046 17.1577 8.57471C17.1577 9.75895 16.9336 10.8713 16.4854 11.9116C16.0426 12.9465 15.4284 13.854 14.6426 14.6343C13.8568 15.4201 12.9437 16.0343 11.9033 16.4771C10.8685 16.9253 9.75895 17.1494 8.57471 17.1494ZM8.57471 15.4561C9.52653 15.4561 10.4175 15.2762 11.2476 14.9165C12.0776 14.5623 12.8081 14.0698 13.439 13.439C14.0754 12.8081 14.5706 12.0776 14.9248 11.2476C15.279 10.4175 15.4561 9.52653 15.4561 8.57471C15.4561 7.62288 15.279 6.73193 14.9248 5.90186C14.5706 5.06624 14.0754 4.33577 13.439 3.71045C12.8081 3.07959 12.0776 2.58708 11.2476 2.23291C10.4175 1.87321 9.52653 1.69336 8.57471 1.69336C7.62842 1.69336 6.73747 1.87321 5.90186 2.23291C5.07178 2.58708 4.34131 3.07959 3.71045 3.71045C3.07959 4.33577 2.58431 5.06624 2.22461 5.90186C1.87044 6.73193 1.69336 7.62288 1.69336 8.57471C1.69336 9.52653 1.87044 10.4175 2.22461 11.2476C2.58431 12.0776 3.07959 12.8081 3.71045 13.439C4.34131 14.0698 5.07178 14.5623 5.90186 14.9165C6.73747 15.2762 7.62842 15.4561 8.57471 15.4561Z" fill="#2A2A2A" style="fill:#2A2A2A;fill:color(display-p3 0.1647 0.1647 0.1647);fill-opacity:1;"/>
</svg>
