<svg width="38" height="41" viewBox="0 0 38 41" fill="none" xmlns="http://www.w3.org/2000/svg">
<path d="M8.91211 36.3867H28.5645C28.2246 35.5195 27.7324 34.7285 27.0879 34.0137C26.4551 33.3105 25.7109 32.7012 24.8555 32.1855C24 31.6582 23.0508 31.2539 22.0078 30.9727C20.9766 30.6797 19.8809 30.5332 18.7207 30.5332C17.5723 30.5332 16.4824 30.6797 15.4512 30.9727C14.4199 31.2539 13.4707 31.6582 12.6035 32.1855C11.748 32.7012 11.0039 33.3105 10.3711 34.0137C9.73828 34.7285 9.25195 35.5195 8.91211 36.3867ZM18.7207 28.1777C19.7168 28.1895 20.6133 27.9434 21.4102 27.4395C22.207 26.9238 22.834 26.2324 23.291 25.3652C23.7598 24.498 23.9941 23.5195 23.9941 22.4297C23.9941 21.3984 23.7598 20.4609 23.291 19.6172C22.8223 18.7617 22.1895 18.0762 21.3926 17.5605C20.6074 17.0449 19.7168 16.7871 18.7207 16.7871C17.748 16.7871 16.8633 17.0449 16.0664 17.5605C15.2695 18.0762 14.6367 18.7617 14.168 19.6172C13.6992 20.4609 13.4648 21.3984 13.4648 22.4297C13.4648 23.5195 13.6992 24.498 14.168 25.3652C14.6367 26.2207 15.2637 26.9004 16.0488 27.4043C16.8457 27.9082 17.7363 28.166 18.7207 28.1777ZM5.95898 40.5C4.01367 40.5 2.53125 39.9961 1.51172 38.9883C0.503906 37.9922 0 36.5273 0 34.5938V16.5059C0 14.5723 0.503906 13.1074 1.51172 12.1113C2.53125 11.1035 4.01367 10.5996 5.95898 10.5996H31.4297C33.375 10.5996 34.8516 11.1035 35.8594 12.1113C36.8789 13.1191 37.3887 14.584 37.3887 16.5059V34.5938C37.3887 36.5156 36.8789 37.9805 35.8594 38.9883C34.8516 39.9961 33.375 40.5 31.4297 40.5H5.95898ZM3.99023 7.7168C4.10742 6.86133 4.40625 6.19336 4.88672 5.71289C5.36719 5.23242 6.09375 4.99219 7.06641 4.99219H30.3398C31.3125 4.99219 32.0332 5.23242 32.502 5.71289C32.9824 6.19336 33.2871 6.86133 33.416 7.7168H3.99023ZM7.54102 2.49609C7.59961 1.6875 7.86914 1.07227 8.34961 0.650391C8.83008 0.216797 9.50391 0 10.3711 0H27.0176C27.8848 0 28.5586 0.216797 29.0391 0.650391C29.5195 1.07227 29.7949 1.6875 29.8652 2.49609H7.54102Z" fill="white" style="fill:white;fill-opacity:1;"/>
</svg>
