<svg width="18" height="19" viewBox="0 0 18 19" fill="none" xmlns="http://www.w3.org/2000/svg">
<path d="M4.07568 17.0498H13.4888C13.3283 16.6348 13.0959 16.2529 12.7915 15.9043C12.4927 15.5612 12.1357 15.2651 11.7207 15.0161C11.3112 14.7671 10.8574 14.5734 10.3594 14.4351C9.86133 14.2912 9.33561 14.2192 8.78223 14.2192C8.22884 14.2192 7.70312 14.2912 7.20508 14.4351C6.70703 14.5734 6.25049 14.7671 5.83545 15.0161C5.42594 15.2651 5.06901 15.5612 4.76465 15.9043C4.46582 16.2529 4.23617 16.6348 4.07568 17.0498ZM8.78223 13.0654C9.24707 13.071 9.66488 12.9548 10.0356 12.7168C10.4119 12.4788 10.7108 12.1551 10.9321 11.7456C11.1535 11.3361 11.2642 10.874 11.2642 10.3594C11.2642 9.8724 11.1535 9.42692 10.9321 9.02295C10.7108 8.61898 10.4119 8.29801 10.0356 8.06006C9.66488 7.81657 9.24707 7.69482 8.78223 7.69482C8.31738 7.69482 7.89681 7.81657 7.52051 8.06006C7.14421 8.29801 6.84538 8.61898 6.62402 9.02295C6.40267 9.42692 6.29476 9.8724 6.30029 10.3594C6.30029 10.874 6.41097 11.3361 6.63232 11.7456C6.85368 12.1496 7.14974 12.4705 7.52051 12.7085C7.89681 12.9465 8.31738 13.0654 8.78223 13.0654ZM2.72266 18.8096C1.82617 18.8096 1.14827 18.5827 0.688965 18.1289C0.229655 17.6751 0 17.0028 0 16.1118V7.57861C0 6.68766 0.229655 6.0153 0.688965 5.56152C1.14827 5.10775 1.82617 4.88086 2.72266 4.88086H14.8169C15.7134 4.88086 16.3913 5.11051 16.8506 5.56982C17.3154 6.0236 17.5479 6.6932 17.5479 7.57861V16.1118C17.5479 16.9972 17.3154 17.6668 16.8506 18.1206C16.3913 18.5799 15.7134 18.8096 14.8169 18.8096H2.72266ZM1.82617 3.52783C1.88704 3.13493 2.02262 2.83057 2.23291 2.61475C2.44873 2.39893 2.77799 2.29102 3.2207 2.29102H14.3271C14.7699 2.29102 15.0964 2.39893 15.3066 2.61475C15.5225 2.83057 15.6608 3.13493 15.7217 3.52783H1.82617ZM3.51953 1.12891C3.54167 0.758138 3.66064 0.478678 3.87646 0.290527C4.09782 0.0968424 4.40771 0 4.80615 0H12.7417C13.1401 0 13.4473 0.0968424 13.6631 0.290527C13.8789 0.478678 14.0034 0.758138 14.0366 1.12891H3.51953Z" fill="#2A2A2A" style="fill:#2A2A2A;fill:color(display-p3 0.1647 0.1647 0.1647);fill-opacity:1;"/>
</svg>
