<svg width="96" height="96" viewBox="0 0 96 96" fill="none" xmlns="http://www.w3.org/2000/svg">
<path d="M47.8125 95.625C41.2188 95.625 35.0312 94.375 29.25 91.875C23.4688 89.4062 18.3906 85.9844 14.0156 81.6094C9.64062 77.2344 6.20312 72.1562 3.70312 66.375C1.23438 60.5938 0 54.4062 0 47.8125C0 41.2188 1.23438 35.0312 3.70312 29.25C6.20312 23.4688 9.64062 18.3906 14.0156 14.0156C18.3906 9.60938 23.4688 6.17188 29.25 3.70312C35.0312 1.23437 41.2188 0 47.8125 0C54.4062 0 60.5938 1.23437 66.375 3.70312C72.1562 6.17188 77.2344 9.60938 81.6094 14.0156C85.9844 18.3906 89.4062 23.4688 91.875 29.25C94.375 35.0312 95.625 41.2188 95.625 47.8125C95.625 54.4062 94.375 60.5938 91.875 66.375C89.4062 72.1562 85.9844 77.2344 81.6094 81.6094C77.2344 85.9844 72.1562 89.4062 66.375 91.875C60.5938 94.375 54.4062 95.625 47.8125 95.625ZM47.8125 87.6562C53.3125 87.6562 58.4688 86.625 63.2812 84.5625C68.0938 82.5 72.3281 79.6406 75.9844 75.9844C79.6406 72.3281 82.5 68.0938 84.5625 63.2812C86.625 58.4688 87.6562 53.3125 87.6562 47.8125C87.6562 42.3125 86.625 37.1562 84.5625 32.3438C82.5 27.5 79.6406 23.2656 75.9844 19.6406C72.3281 15.9844 68.0938 13.125 63.2812 11.0625C58.4688 9 53.3125 7.96875 47.8125 7.96875C42.3125 7.96875 37.1562 9 32.3438 11.0625C27.5312 13.125 23.2969 15.9844 19.6406 19.6406C15.9844 23.2656 13.125 27.5 11.0625 32.3438C9 37.1562 7.96875 42.3125 7.96875 47.8125C7.96875 53.3125 9 58.4688 11.0625 63.2812C13.125 68.0938 15.9844 72.3281 19.6406 75.9844C23.2969 79.6406 27.5312 82.5 32.3438 84.5625C37.1562 86.625 42.3125 87.6562 47.8125 87.6562ZM79.875 78.7031C77.0312 81.4844 73.6875 83.8594 69.8438 85.8281C66.0312 87.7969 62.1719 89.2969 58.2656 90.3281C54.3594 91.3906 50.875 91.9219 47.8125 91.9219C44.7812 91.9219 41.2969 91.3906 37.3594 90.3281C33.4531 89.2969 29.5781 87.7969 25.7344 85.8281C21.8906 83.8594 18.5625 81.4844 15.75 78.7031L15.8906 78.1406C16.6719 75.8594 18.5 73.6094 21.375 71.3906C24.25 69.1719 27.9375 67.3438 32.4375 65.9062C36.9688 64.4688 42.0938 63.75 47.8125 63.75C53.5625 63.75 58.6875 64.4688 63.1875 65.9062C67.7188 67.3438 71.4062 69.1719 74.25 71.3906C77.125 73.6094 78.9531 75.875 79.7344 78.1875L79.875 78.7031ZM47.8125 55.7812C44.8125 55.75 42.0938 54.9688 39.6562 53.4375C37.25 51.875 35.3281 49.7656 33.8906 47.1094C32.4844 44.4531 31.7656 41.4531 31.7344 38.1094C31.7031 34.9531 32.4062 32.0625 33.8438 29.4375C35.2812 26.8125 37.2188 24.7188 39.6562 23.1562C42.0938 21.5625 44.8125 20.7656 47.8125 20.7656C50.8125 20.7656 53.5156 21.5625 55.9219 23.1562C58.3594 24.7188 60.2969 26.8125 61.7344 29.4375C63.1719 32.0625 63.8906 34.9531 63.8906 38.1094C63.8906 41.4531 63.1719 44.4688 61.7344 47.1562C60.3281 49.8438 58.4062 51.9688 55.9688 53.5312C53.5312 55.0625 50.8125 55.8125 47.8125 55.7812Z" fill="#9A9A9A" style="fill:#9A9A9A;fill:color(display-p3 0.6039 0.6039 0.6039);fill-opacity:1;"/>
</svg>
