<svg width="37" height="37" viewBox="0 0 37 37" fill="none" xmlns="http://www.w3.org/2000/svg">
<path d="M18.334 36.668C15.8027 36.668 13.4297 36.1875 11.2148 35.2266C9 34.2773 7.04883 32.959 5.36133 31.2715C3.68555 29.5957 2.37305 27.6562 1.42383 25.4531C0.474609 23.2383 0 20.8652 0 18.334C0 15.8027 0.474609 13.4297 1.42383 11.2148C2.37305 9 3.68555 7.05469 5.36133 5.37891C7.04883 3.69141 9 2.37305 11.2148 1.42383C13.4297 0.474609 15.8027 0 18.334 0C20.8652 0 23.2383 0.474609 25.4531 1.42383C27.668 2.37305 29.6133 3.69141 31.2891 5.37891C32.9648 7.05469 34.2773 9 35.2266 11.2148C36.1875 13.4297 36.668 15.8027 36.668 18.334C36.668 20.8652 36.1875 23.2383 35.2266 25.4531C34.2773 27.6562 32.9648 29.5957 31.2891 31.2715C29.6133 32.959 27.668 34.2773 25.4531 35.2266C23.2383 36.1875 20.8652 36.668 18.334 36.668ZM18.3164 33.4512C19.6055 33.4512 20.9062 33.2754 22.2188 32.9238C23.543 32.5723 24.7969 32.0625 25.9805 31.3945C27.1641 30.7383 28.1895 29.9414 29.0566 29.0039C28.3652 27.9609 27.4746 27.0879 26.3848 26.3848C25.3066 25.6699 24.082 25.1309 22.7109 24.7676C21.3516 24.3926 19.8867 24.2051 18.3164 24.2051C16.7461 24.2051 15.2754 24.3926 13.9043 24.7676C12.5332 25.1426 11.3086 25.6875 10.2305 26.4023C9.16406 27.1172 8.2793 27.9844 7.57617 29.0039C8.45508 29.9414 9.48633 30.7383 10.6699 31.3945C11.8535 32.0625 13.1016 32.5723 14.4141 32.9238C15.7383 33.2754 17.0391 33.4512 18.3164 33.4512ZM18.3164 21.1289C19.4883 21.1406 20.5371 20.8477 21.4629 20.25C22.3887 19.6523 23.127 18.8438 23.6777 17.8242C24.2285 16.793 24.5039 15.6445 24.5039 14.3789C24.5039 13.1719 24.2285 12.0645 23.6777 11.0566C23.127 10.0488 22.3828 9.24609 21.4453 8.64844C20.5078 8.03906 19.4648 7.73438 18.3164 7.73438C17.168 7.73438 16.125 8.03906 15.1875 8.64844C14.25 9.24609 13.5059 10.0488 12.9551 11.0566C12.416 12.0645 12.1465 13.1719 12.1465 14.3789C12.1465 15.6445 12.416 16.7871 12.9551 17.8066C13.5059 18.8262 14.2441 19.6348 15.1699 20.2324C16.1074 20.8301 17.1562 21.1289 18.3164 21.1289Z" fill="white" style="fill:white;fill-opacity:1;"/>
</svg>
