<svg width="57" height="57" viewBox="0 0 57 57" fill="none" xmlns="http://www.w3.org/2000/svg">
<path d="M28.2463 56.4922C24.3453 56.4922 20.6903 55.7539 17.2814 54.2773C13.8726 52.819 10.8739 50.7956 8.28535 48.207C5.69681 45.6185 3.66426 42.6198 2.1877 39.2109C0.729365 35.8021 0.000198364 32.1471 0.000198364 28.2461C0.000198364 24.3451 0.729365 20.6901 2.1877 17.2812C3.66426 13.8542 5.69681 10.8555 8.28535 8.28516C10.8739 5.69661 13.8726 3.67318 17.2814 2.21484C20.6903 0.738281 24.3453 0 28.2463 0C32.1473 0 35.8023 0.738281 39.2111 2.21484C42.6382 3.67318 45.646 5.69661 48.2346 8.28516C50.8231 10.8555 52.8466 13.8542 54.3049 17.2812C55.7814 20.6901 56.5197 24.3451 56.5197 28.2461C56.5197 32.1471 55.7814 35.8021 54.3049 39.2109C52.8466 42.6198 50.8231 45.6185 48.2346 48.207C45.646 50.7956 42.6382 52.819 39.2111 54.2773C35.8023 55.7539 32.1473 56.4922 28.2463 56.4922ZM28.2736 51.8438C30.2971 51.8438 32.3296 51.5703 34.3713 51.0234C36.4312 50.4766 38.3726 49.6836 40.1955 48.6445C42.0184 47.6055 43.6226 46.3477 45.008 44.8711C43.9689 43.2852 42.5926 41.9453 40.8791 40.8516C39.1838 39.7396 37.2606 38.901 35.1096 38.3359C32.9768 37.7526 30.6981 37.4609 28.2736 37.4609C25.7945 37.4609 23.4794 37.7526 21.3283 38.3359C19.1773 38.9193 17.2632 39.7669 15.5861 40.8789C13.9091 41.9727 12.551 43.3034 11.5119 44.8711C12.8791 46.3477 14.4742 47.6055 16.2971 48.6445C18.1382 49.6836 20.0796 50.4766 22.1213 51.0234C24.163 51.5703 26.2137 51.8438 28.2736 51.8438ZM28.2736 32.7305C30.0419 32.7487 31.646 32.3021 33.0861 31.3906C34.5262 30.4609 35.6656 29.2122 36.5041 27.6445C37.3426 26.0586 37.7619 24.2812 37.7619 22.3125C37.7619 20.4531 37.3335 18.7487 36.4768 17.1992C35.6382 15.6497 34.4989 14.4102 33.0588 13.4805C31.6187 12.5326 30.0236 12.0586 28.2736 12.0586C26.4872 12.0586 24.8739 12.5326 23.4338 13.4805C21.9937 14.4102 20.8453 15.6497 19.9885 17.1992C19.1499 18.7487 18.7398 20.4531 18.758 22.3125C18.758 24.2812 19.1773 26.0495 20.0158 27.6172C20.8544 29.1849 21.9846 30.4245 23.4064 31.3359C24.8466 32.2474 26.4689 32.7122 28.2736 32.7305Z" fill="#9A9A9A" style="fill:#9A9A9A;fill:color(display-p3 0.6039 0.6039 0.6039);fill-opacity:1;"/>
</svg>
