<svg width="18" height="18" viewBox="0 0 18 18" fill="none" xmlns="http://www.w3.org/2000/svg">
<path d="M8.57471 17.1494C7.39046 17.1494 6.28092 16.9253 5.24609 16.4771C4.21126 16.0343 3.30094 15.4201 2.51514 14.6343C1.72933 13.8485 1.1123 12.9382 0.664062 11.9033C0.221354 10.8685 0 9.75895 0 8.57471C0 7.39046 0.221354 6.28092 0.664062 5.24609C1.1123 4.20573 1.72933 3.29541 2.51514 2.51514C3.30094 1.72933 4.21126 1.11507 5.24609 0.672363C6.28092 0.224121 7.39046 0 8.57471 0C9.75895 0 10.8685 0.224121 11.9033 0.672363C12.9437 1.11507 13.8568 1.72933 14.6426 2.51514C15.4284 3.29541 16.0426 4.20573 16.4854 5.24609C16.9336 6.28092 17.1577 7.39046 17.1577 8.57471C17.1577 9.75895 16.9336 10.8685 16.4854 11.9033C16.0426 12.9382 15.4284 13.8485 14.6426 14.6343C13.8568 15.4201 12.9437 16.0343 11.9033 16.4771C10.8685 16.9253 9.75895 17.1494 8.57471 17.1494ZM8.58301 15.7383C9.19727 15.7383 9.81429 15.6553 10.4341 15.4893C11.0594 15.3232 11.6488 15.0825 12.2021 14.7671C12.7555 14.4517 13.2425 14.0698 13.6631 13.6216C13.3477 13.1401 12.9299 12.7334 12.4097 12.4014C11.895 12.0638 11.3112 11.8092 10.6582 11.6377C10.0107 11.4606 9.31901 11.3721 8.58301 11.3721C7.8304 11.3721 7.1276 11.4606 6.47461 11.6377C5.82161 11.8148 5.24056 12.0721 4.73145 12.4097C4.22233 12.7417 3.81006 13.1457 3.49463 13.6216C3.90967 14.0698 4.39388 14.4517 4.94727 14.7671C5.50618 15.0825 6.09554 15.3232 6.71533 15.4893C7.33512 15.6553 7.95768 15.7383 8.58301 15.7383ZM8.58301 9.93604C9.11979 9.94157 9.60677 9.80599 10.0439 9.5293C10.4811 9.24707 10.827 8.868 11.0815 8.39209C11.3361 7.91064 11.4634 7.37109 11.4634 6.77344C11.4634 6.20898 11.3333 5.69157 11.0732 5.22119C10.8187 4.75081 10.4728 4.37451 10.0356 4.09229C9.59847 3.80452 9.11426 3.66064 8.58301 3.66064C8.04069 3.66064 7.55094 3.80452 7.11377 4.09229C6.6766 4.37451 6.32796 4.75081 6.06787 5.22119C5.81331 5.69157 5.6888 6.20898 5.69434 6.77344C5.69434 7.37109 5.82161 7.90788 6.07617 8.38379C6.33073 8.8597 6.67383 9.236 7.10547 9.5127C7.54264 9.78939 8.03516 9.9305 8.58301 9.93604Z" fill="#2A2A2A" style="fill:#2A2A2A;fill:color(display-p3 0.1647 0.1647 0.1647);fill-opacity:1;"/>
</svg>
